<svg id="Layer_1" data-name="Layer 1" xmlns="http://www.w3.org/2000/svg" viewBox="0 0 352.6 231"><defs><style>.cls-1,.cls-30{fill:#fff;}.cls-2,.cls-22{fill:none;}.cls-14,.cls-27,.cls-3,.cls-4{fill:#231f20;}.cls-4{fill-rule:evenodd;}.cls-5{font-size:12px;}.cls-23,.cls-41,.cls-5{fill:#432a75;}.cls-23,.cls-27,.cls-41,.cls-5{font-family:MyriadPro-Regular, Myriad Pro;}.cls-6{letter-spacing:-0.07em;}.cls-7{letter-spacing:0em;}.cls-8{letter-spacing:0em;}.cls-9{letter-spacing:-0.01em;}.cls-10{letter-spacing:0.01em;}.cls-11{letter-spacing:0em;}.cls-12{letter-spacing:0em;}.cls-13{fill:#efe9f4;}.cls-13,.cls-22,.cls-29{stroke:#231f20;stroke-miterlimit:10;}.cls-14,.cls-30{font-size:8.97px;font-family:MyriadPro-Bold, Myriad Pro;font-weight:700;}.cls-15{letter-spacing:-0.03em;}.cls-16{letter-spacing:-0.02em;}.cls-17{letter-spacing:-0.01em;}.cls-18{letter-spacing:0em;}.cls-19{letter-spacing:0em;}.cls-20{letter-spacing:0.02em;}.cls-21{letter-spacing:-0.02em;}.cls-22{stroke-width:0.25px;}.cls-23,.cls-27{font-size:7.49px;}.cls-24{letter-spacing:-0.01em;}.cls-25{letter-spacing:0em;}.cls-26{letter-spacing:0em;}.cls-28{letter-spacing:-0.01em;}.cls-29{fill:#7f6cb1;}.cls-31{letter-spacing:-0.01em;}.cls-32{letter-spacing:0em;}.cls-33{letter-spacing:0em;}.cls-34{letter-spacing:-0.01em;}.cls-35{letter-spacing:-0.02em;}.cls-36{letter-spacing:-0.01em;}.cls-37{letter-spacing:0.01em;}.cls-38{letter-spacing:0em;}.cls-39{letter-spacing:-0.01em;}.cls-40{letter-spacing:-0.01em;}.cls-41{font-size:8.46px;}.cls-42{letter-spacing:-0.01em;}.cls-43{letter-spacing:0em;}.cls-44{letter-spacing:0em;}.cls-45{letter-spacing:-0.01em;}</style></defs><title>Architecture2</title><rect class="cls-1" x="7.5" y="10.5" width="128.27" height="213" rx="12" ry="12"/><rect class="cls-2" x="110.26" y="216" width="13.51" height="15"/><rect class="cls-3" x="111.26" y="222.53" width="2.51" height="1.5"/><rect class="cls-3" x="115.76" y="222.53" width="2.51" height="1.5"/><rect class="cls-3" x="120.24" y="222.53" width="2.51" height="1.5"/><rect class="cls-2" x="96.75" y="216" width="13.51" height="15"/><rect class="cls-3" x="97.75" y="222.53" width="2.51" height="1.5"/><rect class="cls-3" x="102.25" y="222.53" width="2.51" height="1.5"/><rect class="cls-3" x="106.73" y="222.53" width="2.51" height="1.5"/><rect class="cls-2" x="83.25" y="216" width="13.51" height="15"/><rect class="cls-3" x="84.25" y="222.53" width="2.51" height="1.5"/><rect class="cls-3" x="88.74" y="222.53" width="2.51" height="1.5"/><rect class="cls-3" x="93.22" y="222.53" width="2.51" height="1.5"/><rect class="cls-2" x="69.74" y="216" width="13.51" height="15"/><rect class="cls-3" x="70.74" y="222.53" width="2.51" height="1.5"/><rect class="cls-3" x="75.23" y="222.53" width="2.51" height="1.5"/><rect class="cls-3" x="79.72" y="222.53" width="2.51" height="1.5"/><rect class="cls-2" x="56.23" y="216" width="13.51" height="15"/><rect class="cls-3" x="57.23" y="222.53" width="2.51" height="1.5"/><rect class="cls-3" x="61.73" y="222.53" width="2.51" height="1.5"/><rect class="cls-3" x="66.21" y="222.53" width="2.51" height="1.5"/><rect class="cls-2" x="42.72" y="216" width="13.51" height="15"/><rect class="cls-3" x="43.72" y="222.53" width="2.51" height="1.5"/><rect class="cls-3" x="48.22" y="222.53" width="2.51" height="1.5"/><rect class="cls-3" x="52.7" y="222.53" width="2.51" height="1.5"/><rect class="cls-2" x="29.22" y="216" width="13.51" height="15"/><rect class="cls-3" x="30.21" y="222.53" width="2.51" height="1.5"/><rect class="cls-3" x="34.71" y="222.53" width="2.51" height="1.5"/><rect class="cls-3" x="39.19" y="222.53" width="2.51" height="1.5"/><path class="cls-2" d="M89.45,270.5H79.74l-.16,0a4.23,4.23,0,0,1-1.23-.21l-4.69,14.25a19.15,19.15,0,0,0,5.4,1l.68,0h9.71Z" transform="translate(-60.23 -54.5)"/><path class="cls-4" d="M79.43,278.52l0-1.5a11.58,11.58,0,0,1-2.28-.3l-.35,1.46A12.6,12.6,0,0,0,79.43,278.52Z" transform="translate(-60.23 -54.5)"/><rect class="cls-3" x="21.2" y="222.53" width="2.51" height="1.5"/><rect class="cls-3" x="25.69" y="222.53" width="2.51" height="1.5"/><path class="cls-2" d="M78.35,270.27a4.53,4.53,0,0,1-3.07-3.7L60.4,268.49a19.9,19.9,0,0,0,1.46,5.29,19.5,19.5,0,0,0,6.89,8.32,20.22,20.22,0,0,0,4.91,2.42Z" transform="translate(-60.23 -54.5)"/><path class="cls-4" d="M68.3,271.11l1.37-.62a11.14,11.14,0,0,1-.72-2.18l-1.47.32A13.6,13.6,0,0,0,68.3,271.11Z" transform="translate(-60.23 -54.5)"/><path class="cls-4" d="M71,274.93l1-1.07c-.27-.27-.52-.56-.78-.84s-.47-.61-.69-.93l-1.25.83c.25.36.52.71.78,1.06S70.66,274.63,71,274.93Z" transform="translate(-60.23 -54.5)"/><path class="cls-4" d="M74.84,277.53l.59-1.38c-.35-.17-.7-.33-1-.51s-.66-.39-1-.62l-.86,1.23c.35.26.73.46,1.1.7S74.44,277.33,74.84,277.53Z" transform="translate(-60.23 -54.5)"/><path class="cls-2" d="M75.28,266.57a1.63,1.63,0,0,1,0-.31v-.16c0-.05,0-.08,0-.25V254h-15v11.82l0,.59,0,.68a10.56,10.56,0,0,0,.12,1.37Z" transform="translate(-60.23 -54.5)"/><rect class="cls-3" x="6.97" y="200.53" width="1.5" height="2.51"/><rect class="cls-3" x="6.97" y="205.02" width="1.5" height="2.51"/><path class="cls-4" d="M67.23,266.53l1.49-.06c0-.75,0-1.65,0-2.47H67.2C67.21,264.85,67.17,265.65,67.23,266.53Z" transform="translate(-60.23 -54.5)"/><rect class="cls-2" y="186.02" width="15" height="13.51"/><rect class="cls-3" x="6.97" y="187.02" width="1.5" height="2.51"/><rect class="cls-3" x="6.97" y="191.51" width="1.5" height="2.51"/><rect class="cls-3" x="6.97" y="196" width="1.5" height="2.51"/><rect class="cls-2" y="172.51" width="15" height="13.51"/><rect class="cls-3" x="6.97" y="173.51" width="1.5" height="2.51"/><rect class="cls-3" x="6.97" y="178.01" width="1.5" height="2.51"/><rect class="cls-3" x="6.97" y="182.49" width="1.5" height="2.51"/><rect class="cls-2" y="159" width="15" height="13.51"/><rect class="cls-3" x="6.97" y="160" width="1.5" height="2.51"/><rect class="cls-3" x="6.97" y="164.5" width="1.5" height="2.51"/><rect class="cls-3" x="6.97" y="168.98" width="1.5" height="2.51"/><rect class="cls-2" y="145.5" width="15" height="13.51"/><rect class="cls-3" x="6.97" y="146.49" width="1.5" height="2.51"/><rect class="cls-3" x="6.97" y="150.99" width="1.5" height="2.51"/><rect class="cls-3" x="6.97" y="155.47" width="1.5" height="2.51"/><rect class="cls-2" y="131.99" width="15" height="13.51"/><rect class="cls-3" x="6.97" y="132.99" width="1.5" height="2.51"/><rect class="cls-3" x="6.97" y="137.48" width="1.5" height="2.51"/><rect class="cls-3" x="6.97" y="141.97" width="1.5" height="2.51"/><rect class="cls-2" y="118.48" width="15" height="13.51"/><rect class="cls-3" x="6.97" y="119.48" width="1.5" height="2.51"/><rect class="cls-3" x="6.97" y="123.98" width="1.5" height="2.51"/><rect class="cls-3" x="6.97" y="128.46" width="1.5" height="2.51"/><rect class="cls-2" y="104.97" width="15" height="13.51"/><rect class="cls-3" x="6.97" y="105.97" width="1.5" height="2.51"/><rect class="cls-3" x="6.97" y="110.47" width="1.5" height="2.51"/><rect class="cls-3" x="6.97" y="114.95" width="1.5" height="2.51"/><rect class="cls-2" y="91.47" width="15" height="13.51"/><rect class="cls-3" x="6.97" y="92.46" width="1.5" height="2.51"/><rect class="cls-3" x="6.97" y="96.96" width="1.5" height="2.51"/><rect class="cls-3" x="6.97" y="101.44" width="1.5" height="2.51"/><rect class="cls-2" y="77.96" width="15" height="13.51"/><rect class="cls-3" x="6.97" y="78.96" width="1.5" height="2.51"/><rect class="cls-3" x="6.97" y="83.45" width="1.5" height="2.51"/><rect class="cls-3" x="6.97" y="87.94" width="1.5" height="2.51"/><rect class="cls-2" y="64.45" width="15" height="13.51"/><rect class="cls-3" x="6.97" y="65.45" width="1.5" height="2.51"/><rect class="cls-3" x="6.97" y="69.95" width="1.5" height="2.51"/><rect class="cls-3" x="6.97" y="74.43" width="1.5" height="2.51"/><rect class="cls-2" y="50.94" width="15" height="13.51"/><rect class="cls-3" x="6.97" y="51.94" width="1.5" height="2.51"/><rect class="cls-3" x="6.97" y="56.44" width="1.5" height="2.51"/><rect class="cls-3" x="6.97" y="60.92" width="1.5" height="2.51"/><rect class="cls-2" y="37.44" width="15" height="13.51"/><rect class="cls-3" x="6.97" y="38.43" width="1.5" height="2.51"/><rect class="cls-3" x="6.97" y="42.93" width="1.5" height="2.51"/><rect class="cls-3" x="6.97" y="47.41" width="1.5" height="2.51"/><rect class="cls-2" y="23.93" width="15" height="13.51"/><rect class="cls-3" x="6.97" y="24.93" width="1.5" height="2.51"/><rect class="cls-3" x="6.97" y="29.42" width="1.5" height="2.51"/><rect class="cls-3" x="6.97" y="33.91" width="1.5" height="2.51"/><path class="cls-2" d="M75.23,78.43v-.85a6.25,6.25,0,0,1,0-.68,3.18,3.18,0,0,1,.06-.62,3.92,3.92,0,0,1,.37-1.19,4.59,4.59,0,0,1,1.69-1.89l-8-12.66a19.6,19.6,0,0,0-7.16,8.07,18.86,18.86,0,0,0-1.65,5.23,18,18,0,0,0-.25,2.74c0,.54,0,.69,0,1v.85Z" transform="translate(-60.23 -54.5)"/><path class="cls-4" d="M70.29,68.8l1.13,1a10.79,10.79,0,0,1,1.68-1.56L72.2,67A11.52,11.52,0,0,0,70.29,68.8Z" transform="translate(-60.23 -54.5)"/><path class="cls-4" d="M67.93,72.83l1.42.5a7,7,0,0,1,.44-1.06,6.59,6.59,0,0,1,.55-1l-1.28-.79a7.52,7.52,0,0,0-.62,1.15A8.6,8.6,0,0,0,67.93,72.83Z" transform="translate(-60.23 -54.5)"/><path class="cls-4" d="M67.2,77.41h1.5a13.5,13.5,0,0,1,.18-2.33l-1.48-.26A15.15,15.15,0,0,0,67.2,77.41Z" transform="translate(-60.23 -54.5)"/><path class="cls-2" d="M77.36,73.2a4.52,4.52,0,0,1,2.37-.7h6.75v-15H79.73a19.62,19.62,0,0,0-10.42,3Z" transform="translate(-60.23 -54.5)"/><rect class="cls-3" x="22.75" y="9.97" width="2.51" height="1.5"/><polygon class="cls-4" points="18.2 10.04 18.35 11.53 19.5 11.47 20.76 11.47 20.76 9.97 19.5 9.97 18.2 10.04"/><path class="cls-4" d="M74,65.89l.7,1.33a10.69,10.69,0,0,1,2.14-.84l-.4-1.45A12.5,12.5,0,0,0,74,65.89Z" transform="translate(-60.23 -54.5)"/><rect class="cls-2" x="26.25" y="3" width="13.51" height="15"/><rect class="cls-3" x="36.26" y="9.97" width="2.51" height="1.5"/><rect class="cls-3" x="31.76" y="9.97" width="2.51" height="1.5"/><rect class="cls-3" x="27.28" y="9.97" width="2.51" height="1.5"/><rect class="cls-2" x="39.76" y="3" width="13.51" height="15"/><rect class="cls-3" x="49.76" y="9.97" width="2.51" height="1.5"/><rect class="cls-3" x="45.27" y="9.97" width="2.51" height="1.5"/><rect class="cls-3" x="40.78" y="9.97" width="2.51" height="1.5"/><rect class="cls-2" x="53.27" y="3" width="13.51" height="15"/><rect class="cls-3" x="63.27" y="9.97" width="2.51" height="1.5"/><rect class="cls-3" x="58.77" y="9.97" width="2.51" height="1.5"/><rect class="cls-3" x="54.29" y="9.97" width="2.51" height="1.5"/><rect class="cls-2" x="66.78" y="3" width="13.51" height="15"/><rect class="cls-3" x="76.78" y="9.97" width="2.51" height="1.5"/><rect class="cls-3" x="72.28" y="9.97" width="2.51" height="1.5"/><rect class="cls-3" x="67.8" y="9.97" width="2.51" height="1.5"/><rect class="cls-2" x="80.28" y="3" width="13.51" height="15"/><rect class="cls-3" x="90.29" y="9.97" width="2.51" height="1.5"/><rect class="cls-3" x="85.79" y="9.97" width="2.51" height="1.5"/><rect class="cls-3" x="81.31" y="9.97" width="2.51" height="1.5"/><rect class="cls-2" x="93.79" y="3" width="13.51" height="15"/><rect class="cls-3" x="103.79" y="9.97" width="2.51" height="1.5"/><rect class="cls-3" x="99.3" y="9.97" width="2.51" height="1.5"/><rect class="cls-3" x="94.81" y="9.97" width="2.51" height="1.5"/><rect class="cls-2" x="107.3" y="3" width="13.51" height="15"/><rect class="cls-3" x="117.3" y="9.97" width="2.51" height="1.5"/><rect class="cls-3" x="112.8" y="9.97" width="2.51" height="1.5"/><rect class="cls-3" x="108.32" y="9.97" width="2.51" height="1.5"/><path class="cls-2" d="M181,72.5h3l.16,0a4.23,4.23,0,0,1,1.23.21,4.92,4.92,0,0,1,1.13.55,6,6,0,0,1,1,.87L199,64.57a21,21,0,0,0-4-3.67,20.22,20.22,0,0,0-4.91-2.42,19.15,19.15,0,0,0-5.4-.95l-.68,0h-3Z" transform="translate(-60.23 -54.5)"/><path class="cls-4" d="M190.93,66.58l-.83,1.25.92.68c.28.27.58.51.85.79l1.07-1c-.3-.31-.64-.59-1-.89S191.29,66.83,190.93,66.58Z" transform="translate(-60.23 -54.5)"/><path class="cls-4" d="M186.64,64.76l-.32,1.46a11.88,11.88,0,0,1,2.18.73l.62-1.37A12.87,12.87,0,0,0,186.64,64.76Z" transform="translate(-60.23 -54.5)"/><path class="cls-4" d="M182.06,64.47V66c.82,0,1.72,0,2.46,0l.07-1.5C183.71,64.44,182.91,64.48,182.06,64.47Z" transform="translate(-60.23 -54.5)"/><path class="cls-2" d="M187.46,74.15a5.54,5.54,0,0,1,.67,1.08,4.53,4.53,0,0,1,.32,1.2,1.63,1.63,0,0,1,0,.31v.16s0,.08,0,.25v5.07h15V77.15l0-.59,0-.68a10.56,10.56,0,0,0-.12-1.37,19.9,19.9,0,0,0-1.46-5.29A20.92,20.92,0,0,0,199,64.57Z" transform="translate(-60.23 -54.5)"/><rect class="cls-3" x="134.8" y="24.21" width="1.5" height="2.51"/><path class="cls-4" d="M196.18,74.12l-1.46.35a10.88,10.88,0,0,1,.3,2.28l1.5,0A12.6,12.6,0,0,0,196.18,74.12Z" transform="translate(-60.23 -54.5)"/><path class="cls-4" d="M194.28,69.87l-1.23.86c.23.31.41.65.62,1l.5,1,1.38-.58c-.19-.39-.37-.79-.57-1.18S194.54,70.23,194.28,69.87Z" transform="translate(-60.23 -54.5)"/><rect class="cls-2" x="128.27" y="27.72" width="15" height="13.51"/><rect class="cls-3" x="134.8" y="37.72" width="1.5" height="2.51"/><rect class="cls-3" x="134.8" y="33.22" width="1.5" height="2.51"/><rect class="cls-3" x="134.8" y="28.74" width="1.5" height="2.51"/><rect class="cls-2" x="128.27" y="41.23" width="15" height="13.51"/><rect class="cls-3" x="134.8" y="51.23" width="1.5" height="2.51"/><rect class="cls-3" x="134.8" y="46.73" width="1.5" height="2.51"/><rect class="cls-3" x="134.8" y="42.25" width="1.5" height="2.51"/><rect class="cls-2" x="128.27" y="54.73" width="15" height="13.51"/><rect class="cls-3" x="134.8" y="64.74" width="1.5" height="2.51"/><rect class="cls-3" x="134.8" y="60.24" width="1.5" height="2.51"/><rect class="cls-3" x="134.8" y="55.76" width="1.5" height="2.51"/><rect class="cls-2" x="128.27" y="68.24" width="15" height="13.51"/><rect class="cls-3" x="134.8" y="78.24" width="1.5" height="2.51"/><rect class="cls-3" x="134.8" y="73.75" width="1.5" height="2.51"/><rect class="cls-3" x="134.8" y="69.27" width="1.5" height="2.51"/><rect class="cls-2" x="128.27" y="81.75" width="15" height="13.51"/><rect class="cls-3" x="134.8" y="91.75" width="1.5" height="2.51"/><rect class="cls-3" x="134.8" y="87.25" width="1.5" height="2.51"/><rect class="cls-3" x="134.8" y="82.77" width="1.5" height="2.51"/><rect class="cls-2" x="128.27" y="95.26" width="15" height="13.51"/><rect class="cls-3" x="134.8" y="105.26" width="1.5" height="2.51"/><rect class="cls-3" x="134.8" y="100.76" width="1.5" height="2.51"/><rect class="cls-3" x="134.8" y="96.28" width="1.5" height="2.51"/><rect class="cls-2" x="128.27" y="108.76" width="15" height="13.51"/><rect class="cls-3" x="134.8" y="118.77" width="1.5" height="2.51"/><rect class="cls-3" x="134.8" y="114.27" width="1.5" height="2.51"/><rect class="cls-3" x="134.8" y="109.79" width="1.5" height="2.51"/><rect class="cls-2" x="128.27" y="122.27" width="15" height="13.51"/><rect class="cls-3" x="134.8" y="132.27" width="1.5" height="2.51"/><rect class="cls-3" x="134.8" y="127.78" width="1.5" height="2.51"/><rect class="cls-3" x="134.8" y="123.3" width="1.5" height="2.51"/><rect class="cls-2" x="128.27" y="135.78" width="15" height="13.51"/><rect class="cls-3" x="134.8" y="145.78" width="1.5" height="2.51"/><rect class="cls-3" x="134.8" y="141.29" width="1.5" height="2.51"/><rect class="cls-3" x="134.8" y="136.8" width="1.5" height="2.51"/><rect class="cls-2" x="128.27" y="149.29" width="15" height="13.51"/><rect class="cls-3" x="134.8" y="159.29" width="1.5" height="2.51"/><rect class="cls-3" x="134.8" y="154.79" width="1.5" height="2.51"/><rect class="cls-3" x="134.8" y="150.31" width="1.5" height="2.51"/><rect class="cls-2" x="128.27" y="162.79" width="15" height="13.51"/><rect class="cls-3" x="134.8" y="172.8" width="1.5" height="2.51"/><rect class="cls-3" x="134.8" y="168.3" width="1.5" height="2.51"/><rect class="cls-3" x="134.8" y="163.82" width="1.5" height="2.51"/><rect class="cls-2" x="128.27" y="176.3" width="15" height="13.51"/><rect class="cls-3" x="134.8" y="186.3" width="1.5" height="2.51"/><rect class="cls-3" x="134.8" y="181.81" width="1.5" height="2.51"/><rect class="cls-3" x="134.8" y="177.33" width="1.5" height="2.51"/><rect class="cls-2" x="128.27" y="189.81" width="15" height="13.51"/><rect class="cls-3" x="134.8" y="199.81" width="1.5" height="2.51"/><rect class="cls-3" x="134.8" y="195.32" width="1.5" height="2.51"/><rect class="cls-3" x="134.8" y="190.83" width="1.5" height="2.51"/><path class="cls-2" d="M188.5,257.82v7.6a6.25,6.25,0,0,1,0,.68,3.18,3.18,0,0,1-.06.62,3.92,3.92,0,0,1-.37,1.19l13.52,6.48a18.86,18.86,0,0,0,1.65-5.23,18,18,0,0,0,.25-2.74c0-.54,0-.69,0-1v-7.6Z" transform="translate(-60.23 -54.5)"/><path class="cls-4" d="M196.37,267.89l-1.48-.23a10,10,0,0,1-.59,2.23l1.41.53a10.7,10.7,0,0,0,.4-1.25A7.85,7.85,0,0,0,196.37,267.89Z" transform="translate(-60.23 -54.5)"/><rect class="cls-3" x="134.8" y="208.82" width="1.5" height="2.51"/><rect class="cls-3" x="134.8" y="204.34" width="1.5" height="2.51"/><path class="cls-2" d="M188.06,267.91a4.59,4.59,0,0,1-1.69,1.89,4.52,4.52,0,0,1-2.37.7v15a19.57,19.57,0,0,0,17.58-11.11Z" transform="translate(-60.23 -54.5)"/><path class="cls-4" d="M187.61,278l-.44-1.43a11.45,11.45,0,0,1-2.25.42l.12,1.5A13.25,13.25,0,0,0,187.61,278Z" transform="translate(-60.23 -54.5)"/><path class="cls-4" d="M191.74,275.82l-.93-1.17a11,11,0,0,1-1.94,1.23l.66,1.34A12.13,12.13,0,0,0,191.74,275.82Z" transform="translate(-60.23 -54.5)"/><path class="cls-4" d="M194.8,272.32l-1.3-.76a10.83,10.83,0,0,1-1.36,1.85l1.1,1a8.72,8.72,0,0,0,.83-1A9.86,9.86,0,0,0,194.8,272.32Z" transform="translate(-60.23 -54.5)"/><rect class="cls-1" x="147.5" y="10.5" width="197.6" height="213" rx="12" ry="12"/><rect class="cls-2" x="319.53" y="216" width="13.57" height="15"/><rect class="cls-3" x="320.54" y="222.53" width="2.52" height="1.5"/><rect class="cls-3" x="325.05" y="222.53" width="2.52" height="1.5"/><rect class="cls-3" x="329.56" y="222.53" width="2.52" height="1.5"/><rect class="cls-2" x="305.97" y="216" width="13.57" height="15"/><rect class="cls-3" x="306.97" y="222.53" width="2.52" height="1.5"/><rect class="cls-3" x="311.49" y="222.53" width="2.52" height="1.5"/><rect class="cls-3" x="315.99" y="222.53" width="2.52" height="1.5"/><rect class="cls-2" x="292.4" y="216" width="13.57" height="15"/><rect class="cls-3" x="293.4" y="222.53" width="2.52" height="1.5"/><rect class="cls-3" x="297.92" y="222.53" width="2.52" height="1.5"/><rect class="cls-3" x="302.42" y="222.53" width="2.52" height="1.5"/><rect class="cls-2" x="278.83" y="216" width="13.57" height="15"/><rect class="cls-3" x="279.83" y="222.53" width="2.52" height="1.5"/><rect class="cls-3" x="284.35" y="222.53" width="2.52" height="1.5"/><rect class="cls-3" x="288.85" y="222.53" width="2.52" height="1.5"/><rect class="cls-2" x="265.26" y="216" width="13.57" height="15"/><rect class="cls-3" x="266.26" y="222.53" width="2.52" height="1.5"/><rect class="cls-3" x="270.78" y="222.53" width="2.52" height="1.5"/><rect class="cls-3" x="275.28" y="222.53" width="2.52" height="1.5"/><rect class="cls-2" x="251.69" y="216" width="13.57" height="15"/><rect class="cls-3" x="252.69" y="222.53" width="2.52" height="1.5"/><rect class="cls-3" x="257.21" y="222.53" width="2.52" height="1.5"/><rect class="cls-3" x="261.71" y="222.53" width="2.52" height="1.5"/><rect class="cls-2" x="238.12" y="216" width="13.57" height="15"/><rect class="cls-3" x="239.13" y="222.53" width="2.52" height="1.5"/><rect class="cls-3" x="243.64" y="222.53" width="2.52" height="1.5"/><rect class="cls-3" x="248.15" y="222.53" width="2.52" height="1.5"/><rect class="cls-2" x="224.56" y="216" width="13.57" height="15"/><rect class="cls-3" x="225.56" y="222.53" width="2.52" height="1.5"/><rect class="cls-3" x="230.08" y="222.53" width="2.52" height="1.5"/><rect class="cls-3" x="234.58" y="222.53" width="2.52" height="1.5"/><rect class="cls-2" x="210.99" y="216" width="13.57" height="15"/><rect class="cls-3" x="211.99" y="222.53" width="2.52" height="1.5"/><rect class="cls-3" x="216.51" y="222.53" width="2.52" height="1.5"/><rect class="cls-3" x="221.01" y="222.53" width="2.52" height="1.5"/><rect class="cls-2" x="197.42" y="216" width="13.57" height="15"/><rect class="cls-3" x="198.42" y="222.53" width="2.52" height="1.5"/><rect class="cls-3" x="202.94" y="222.53" width="2.52" height="1.5"/><rect class="cls-3" x="207.44" y="222.53" width="2.52" height="1.5"/><rect class="cls-2" x="183.85" y="216" width="13.57" height="15"/><rect class="cls-3" x="184.85" y="222.53" width="2.52" height="1.5"/><rect class="cls-3" x="189.37" y="222.53" width="2.52" height="1.5"/><rect class="cls-3" x="193.87" y="222.53" width="2.52" height="1.5"/><rect class="cls-2" x="170.28" y="216" width="13.57" height="15"/><rect class="cls-3" x="171.28" y="222.53" width="2.52" height="1.5"/><rect class="cls-3" x="175.8" y="222.53" width="2.52" height="1.5"/><rect class="cls-3" x="180.3" y="222.53" width="2.52" height="1.5"/><path class="cls-2" d="M230.51,270.5H219.64a1.71,1.71,0,0,0-.32,0,6,6,0,0,1-.61-.11L215.24,285a19.29,19.29,0,0,0,2.72.45l1.38.08h11.17Z" transform="translate(-60.23 -54.5)"/><path class="cls-4" d="M220.46,278.53V277c-.42,0-.84,0-1.21,0a6.31,6.31,0,0,1-1.15-.11l-.22,1.49a8.06,8.06,0,0,0,1.3.12C219.63,278.53,220.05,278.53,220.46,278.53Z" transform="translate(-60.23 -54.5)"/><rect class="cls-3" x="162.23" y="222.53" width="2.52" height="1.5"/><rect class="cls-3" x="166.74" y="222.53" width="2.52" height="1.5"/><path class="cls-2" d="M218.71,270.37a4.57,4.57,0,0,1-3.38-3.45L200.65,270a19.54,19.54,0,0,0,5.13,9.59,19.54,19.54,0,0,0,9.46,5.36Z" transform="translate(-60.23 -54.5)"/><path class="cls-4" d="M208.74,272l1.32-.73-.51-1c-.12-.36-.27-.72-.38-1.09l-1.44.43c.13.42.3.83.44,1.24Z" transform="translate(-60.23 -54.5)"/><path class="cls-4" d="M211.73,275.62l1-1.15a12.63,12.63,0,0,1-1.61-1.66l-1.18.93A13.55,13.55,0,0,0,211.73,275.62Z" transform="translate(-60.23 -54.5)"/><path class="cls-4" d="M215.81,277.89l.48-1.42a10.77,10.77,0,0,1-2.1-1l-.76,1.29A11.88,11.88,0,0,0,215.81,277.89Z" transform="translate(-60.23 -54.5)"/><path class="cls-2" d="M215.33,266.92a4.34,4.34,0,0,1-.08-.63l0-.36v-11h-15v11l.06,1.34a19.58,19.58,0,0,0,.36,2.74Z" transform="translate(-60.23 -54.5)"/><rect class="cls-3" x="146.97" y="201.41" width="1.5" height="2.52"/><rect class="cls-3" x="146.97" y="205.93" width="1.5" height="2.52"/><path class="cls-4" d="M207.3,267.51l1.49-.18a18.48,18.48,0,0,1-.09-2.4h-1.5A20.59,20.59,0,0,0,207.3,267.51Z" transform="translate(-60.23 -54.5)"/><rect class="cls-2" x="140" y="186.84" width="15" height="13.57"/><rect class="cls-3" x="146.97" y="187.84" width="1.5" height="2.52"/><rect class="cls-3" x="146.97" y="192.36" width="1.5" height="2.52"/><rect class="cls-3" x="146.97" y="196.86" width="1.5" height="2.52"/><rect class="cls-2" x="140" y="173.27" width="15" height="13.57"/><rect class="cls-3" x="146.97" y="174.28" width="1.5" height="2.52"/><rect class="cls-3" x="146.97" y="178.79" width="1.5" height="2.52"/><rect class="cls-3" x="146.97" y="183.29" width="1.5" height="2.52"/><rect class="cls-2" x="140" y="159.7" width="15" height="13.57"/><rect class="cls-3" x="146.97" y="160.71" width="1.5" height="2.52"/><rect class="cls-3" x="146.97" y="165.22" width="1.5" height="2.52"/><rect class="cls-3" x="146.97" y="169.73" width="1.5" height="2.52"/><rect class="cls-2" x="140" y="146.14" width="15" height="13.57"/><rect class="cls-3" x="146.97" y="147.14" width="1.5" height="2.52"/><rect class="cls-3" x="146.97" y="151.66" width="1.5" height="2.52"/><rect class="cls-3" x="146.97" y="156.16" width="1.5" height="2.52"/><rect class="cls-2" x="140" y="132.57" width="15" height="13.57"/><rect class="cls-3" x="146.97" y="133.57" width="1.5" height="2.52"/><rect class="cls-3" x="146.97" y="138.09" width="1.5" height="2.52"/><rect class="cls-3" x="146.97" y="142.59" width="1.5" height="2.52"/><rect class="cls-2" x="140" y="119" width="15" height="13.57"/><rect class="cls-3" x="146.97" y="120" width="1.5" height="2.52"/><rect class="cls-3" x="146.97" y="124.52" width="1.5" height="2.52"/><rect class="cls-3" x="146.97" y="129.02" width="1.5" height="2.52"/><rect class="cls-2" x="140" y="105.43" width="15" height="13.57"/><rect class="cls-3" x="146.97" y="106.43" width="1.5" height="2.52"/><rect class="cls-3" x="146.97" y="110.95" width="1.5" height="2.52"/><rect class="cls-3" x="146.97" y="115.45" width="1.5" height="2.52"/><rect class="cls-2" x="140" y="91.86" width="15" height="13.57"/><rect class="cls-3" x="146.97" y="92.86" width="1.5" height="2.52"/><rect class="cls-3" x="146.97" y="97.38" width="1.5" height="2.52"/><rect class="cls-3" x="146.97" y="101.88" width="1.5" height="2.52"/><rect class="cls-2" x="140" y="78.29" width="15" height="13.57"/><rect class="cls-3" x="146.97" y="79.3" width="1.5" height="2.52"/><rect class="cls-3" x="146.97" y="83.81" width="1.5" height="2.52"/><rect class="cls-3" x="146.97" y="88.32" width="1.5" height="2.52"/><rect class="cls-2" x="140" y="64.73" width="15" height="13.57"/><rect class="cls-3" x="146.97" y="65.73" width="1.5" height="2.52"/><rect class="cls-3" x="146.97" y="70.24" width="1.5" height="2.52"/><rect class="cls-3" x="146.97" y="74.75" width="1.5" height="2.52"/><rect class="cls-2" x="140" y="51.16" width="15" height="13.57"/><rect class="cls-3" x="146.97" y="52.16" width="1.5" height="2.52"/><rect class="cls-3" x="146.97" y="56.68" width="1.5" height="2.52"/><rect class="cls-3" x="146.97" y="61.18" width="1.5" height="2.52"/><rect class="cls-2" x="140" y="37.59" width="15" height="13.57"/><rect class="cls-3" x="146.97" y="38.59" width="1.5" height="2.52"/><rect class="cls-3" x="146.97" y="43.11" width="1.5" height="2.52"/><rect class="cls-3" x="146.97" y="47.61" width="1.5" height="2.52"/><rect class="cls-2" x="140" y="24.02" width="15" height="13.57"/><rect class="cls-3" x="146.97" y="25.02" width="1.5" height="2.52"/><rect class="cls-3" x="146.97" y="29.54" width="1.5" height="2.52"/><rect class="cls-3" x="146.97" y="34.04" width="1.5" height="2.52"/><path class="cls-2" d="M215.23,78.52V77a1,1,0,0,1,0-.11,3.18,3.18,0,0,1,.06-.62,3.74,3.74,0,0,1,.36-1.19,4.58,4.58,0,0,1,1.69-1.91l-8.08-12.64a19.56,19.56,0,0,0-7.16,8.13A18.33,18.33,0,0,0,200.48,74a19.5,19.5,0,0,0-.24,2.74v1.81Z" transform="translate(-60.23 -54.5)"/><path class="cls-4" d="M210.26,68.84l1.13,1a11.06,11.06,0,0,1,1.69-1.59L212.17,67A11.64,11.64,0,0,0,210.26,68.84Z" transform="translate(-60.23 -54.5)"/><path class="cls-4" d="M207.91,72.89l1.41.5a10,10,0,0,1,.44-1.07,7.7,7.7,0,0,1,.55-1L209,70.52a8.61,8.61,0,0,0-.62,1.16A9.07,9.07,0,0,0,207.91,72.89Z" transform="translate(-60.23 -54.5)"/><path class="cls-4" d="M207.2,77.49h1.5a13.56,13.56,0,0,1,.17-2.34l-1.48-.26A14.42,14.42,0,0,0,207.2,77.49Z" transform="translate(-60.23 -54.5)"/><path class="cls-2" d="M217.35,73.21a4.57,4.57,0,0,1,2.38-.71h6.78v-15h-6.78a19.56,19.56,0,0,0-10.46,3.07Z" transform="translate(-60.23 -54.5)"/><rect class="cls-3" x="162.76" y="9.97" width="2.52" height="1.5"/><polygon class="cls-4" points="158.19 10.04 158.35 11.53 159.5 11.47 160.76 11.47 160.76 9.97 159.5 9.97 158.19 10.04"/><path class="cls-4" d="M214,65.9l.7,1.33a11,11,0,0,1,2.14-.85l-.4-1.44A11.9,11.9,0,0,0,214,65.9Z" transform="translate(-60.23 -54.5)"/><rect class="cls-2" x="166.28" y="3" width="13.57" height="15"/><rect class="cls-3" x="176.33" y="9.97" width="2.52" height="1.5"/><rect class="cls-3" x="171.81" y="9.97" width="2.52" height="1.5"/><rect class="cls-3" x="167.31" y="9.97" width="2.52" height="1.5"/><rect class="cls-2" x="179.85" y="3" width="13.57" height="15"/><rect class="cls-3" x="189.9" y="9.97" width="2.52" height="1.5"/><rect class="cls-3" x="185.38" y="9.97" width="2.52" height="1.5"/><rect class="cls-3" x="180.88" y="9.97" width="2.52" height="1.5"/><rect class="cls-2" x="193.42" y="3" width="13.57" height="15"/><rect class="cls-3" x="203.47" y="9.97" width="2.52" height="1.5"/><rect class="cls-3" x="198.95" y="9.97" width="2.52" height="1.5"/><rect class="cls-3" x="194.45" y="9.97" width="2.52" height="1.5"/><rect class="cls-2" x="206.99" y="3" width="13.57" height="15"/><rect class="cls-3" x="217.04" y="9.97" width="2.52" height="1.5"/><rect class="cls-3" x="212.52" y="9.97" width="2.52" height="1.5"/><rect class="cls-3" x="208.02" y="9.97" width="2.52" height="1.5"/><rect class="cls-2" x="220.56" y="3" width="13.57" height="15"/><rect class="cls-3" x="230.61" y="9.97" width="2.52" height="1.5"/><rect class="cls-3" x="226.09" y="9.97" width="2.52" height="1.5"/><rect class="cls-3" x="221.59" y="9.97" width="2.52" height="1.5"/><rect class="cls-2" x="234.13" y="3" width="13.57" height="15"/><rect class="cls-3" x="244.17" y="9.97" width="2.52" height="1.5"/><rect class="cls-3" x="239.66" y="9.97" width="2.52" height="1.5"/><rect class="cls-3" x="235.15" y="9.97" width="2.52" height="1.5"/><rect class="cls-2" x="247.69" y="3" width="13.57" height="15"/><rect class="cls-3" x="257.74" y="9.97" width="2.52" height="1.5"/><rect class="cls-3" x="253.22" y="9.97" width="2.52" height="1.5"/><rect class="cls-3" x="248.72" y="9.97" width="2.52" height="1.5"/><rect class="cls-2" x="261.26" y="3" width="13.57" height="15"/><rect class="cls-3" x="271.31" y="9.97" width="2.52" height="1.5"/><rect class="cls-3" x="266.79" y="9.97" width="2.52" height="1.5"/><rect class="cls-3" x="262.29" y="9.97" width="2.52" height="1.5"/><rect class="cls-2" x="274.83" y="3" width="13.57" height="15"/><rect class="cls-3" x="284.88" y="9.97" width="2.52" height="1.5"/><rect class="cls-3" x="280.36" y="9.97" width="2.52" height="1.5"/><rect class="cls-3" x="275.86" y="9.97" width="2.52" height="1.5"/><rect class="cls-2" x="288.4" y="3" width="13.57" height="15"/><rect class="cls-3" x="298.45" y="9.97" width="2.52" height="1.5"/><rect class="cls-3" x="293.93" y="9.97" width="2.52" height="1.5"/><rect class="cls-3" x="289.43" y="9.97" width="2.52" height="1.5"/><rect class="cls-2" x="301.97" y="3" width="13.57" height="15"/><rect class="cls-3" x="312.02" y="9.97" width="2.52" height="1.5"/><rect class="cls-3" x="307.5" y="9.97" width="2.52" height="1.5"/><rect class="cls-3" x="303" y="9.97" width="2.52" height="1.5"/><rect class="cls-2" x="315.54" y="3" width="13.57" height="15"/><rect class="cls-3" x="325.58" y="9.97" width="2.52" height="1.5"/><rect class="cls-3" x="321.07" y="9.97" width="2.52" height="1.5"/><rect class="cls-3" x="316.56" y="9.97" width="2.52" height="1.5"/><path class="cls-2" d="M389.34,72.5h4.08a1.74,1.74,0,0,0,.32,0,6.17,6.17,0,0,1,.62.11,4.52,4.52,0,0,1,2.18,1.24L407.28,63.4a19.54,19.54,0,0,0-12.18-5.81l-1.37-.08h-4.39Z" transform="translate(-60.23 -54.5)"/><path class="cls-4" d="M399.38,66l-.72,1.31a11.27,11.27,0,0,1,1.88,1.34l1-1.14A13.41,13.41,0,0,0,399.38,66Z" transform="translate(-60.23 -54.5)"/><path class="cls-4" d="M394.93,64.58l-.19,1.49a10.17,10.17,0,0,1,2.24.54l.5-1.42A12.31,12.31,0,0,0,394.93,64.58Z" transform="translate(-60.23 -54.5)"/><rect class="cls-3" x="330.13" y="9.97" width="2.52" height="1.5"/><path class="cls-2" d="M396.54,73.87a6,6,0,0,1,.77,1,6.33,6.33,0,0,1,.43,1.17c0,.21.09.41.07.63l0,.36v4.24h15V77.07l-.05-1.34a19.6,19.6,0,0,0-.37-2.74,20.17,20.17,0,0,0-1.89-5.17,20.44,20.44,0,0,0-3.24-4.42Z" transform="translate(-60.23 -54.5)"/><rect class="cls-3" x="344.13" y="23.29" width="1.5" height="2.52"/><path class="cls-4" d="M405.25,73.17l-1.42.46c.12.36.19.74.3,1.11l.18,1.15,1.49-.16-.2-1.29C405.48,74,405.39,73.58,405.25,73.17Z" transform="translate(-60.23 -54.5)"/><path class="cls-4" d="M403,69.06l-1.16,1A11.69,11.69,0,0,1,403.12,72l1.33-.69A13.88,13.88,0,0,0,403,69.06Z" transform="translate(-60.23 -54.5)"/><rect class="cls-2" x="337.6" y="26.81" width="15" height="13.57"/><rect class="cls-3" x="344.13" y="36.85" width="1.5" height="2.52"/><rect class="cls-3" x="344.13" y="32.34" width="1.5" height="2.52"/><rect class="cls-3" x="344.13" y="27.83" width="1.5" height="2.52"/><rect class="cls-2" x="337.6" y="40.37" width="15" height="13.57"/><rect class="cls-3" x="344.13" y="50.42" width="1.5" height="2.52"/><rect class="cls-3" x="344.13" y="45.9" width="1.5" height="2.52"/><rect class="cls-3" x="344.13" y="41.4" width="1.5" height="2.52"/><rect class="cls-2" x="337.6" y="53.94" width="15" height="13.57"/><rect class="cls-3" x="344.13" y="63.99" width="1.5" height="2.52"/><rect class="cls-3" x="344.13" y="59.47" width="1.5" height="2.52"/><rect class="cls-3" x="344.13" y="54.97" width="1.5" height="2.52"/><rect class="cls-2" x="337.6" y="67.51" width="15" height="13.57"/><rect class="cls-3" x="344.13" y="77.56" width="1.5" height="2.52"/><rect class="cls-3" x="344.13" y="73.04" width="1.5" height="2.52"/><rect class="cls-3" x="344.13" y="68.54" width="1.5" height="2.52"/><rect class="cls-2" x="337.6" y="81.08" width="15" height="13.57"/><rect class="cls-3" x="344.13" y="91.13" width="1.5" height="2.52"/><rect class="cls-3" x="344.13" y="86.61" width="1.5" height="2.52"/><rect class="cls-3" x="344.13" y="82.11" width="1.5" height="2.52"/><rect class="cls-2" x="337.6" y="94.65" width="15" height="13.57"/><rect class="cls-3" x="344.13" y="104.7" width="1.5" height="2.52"/><rect class="cls-3" x="344.13" y="100.18" width="1.5" height="2.52"/><rect class="cls-3" x="344.13" y="95.68" width="1.5" height="2.52"/><rect class="cls-2" x="337.6" y="108.22" width="15" height="13.57"/><rect class="cls-3" x="344.13" y="118.26" width="1.5" height="2.52"/><rect class="cls-3" x="344.13" y="113.75" width="1.5" height="2.52"/><rect class="cls-3" x="344.13" y="109.24" width="1.5" height="2.52"/><rect class="cls-2" x="337.6" y="121.79" width="15" height="13.57"/><rect class="cls-3" x="344.13" y="131.83" width="1.5" height="2.52"/><rect class="cls-3" x="344.13" y="127.32" width="1.5" height="2.52"/><rect class="cls-3" x="344.13" y="122.81" width="1.5" height="2.52"/><rect class="cls-2" x="337.6" y="135.35" width="15" height="13.57"/><rect class="cls-3" x="344.13" y="145.4" width="1.5" height="2.52"/><rect class="cls-3" x="344.13" y="140.88" width="1.5" height="2.52"/><rect class="cls-3" x="344.13" y="136.38" width="1.5" height="2.52"/><rect class="cls-2" x="337.6" y="148.92" width="15" height="13.57"/><rect class="cls-3" x="344.13" y="158.97" width="1.5" height="2.52"/><rect class="cls-3" x="344.13" y="154.45" width="1.5" height="2.52"/><rect class="cls-3" x="344.13" y="149.95" width="1.5" height="2.52"/><rect class="cls-2" x="337.6" y="162.49" width="15" height="13.57"/><rect class="cls-3" x="344.13" y="172.54" width="1.5" height="2.52"/><rect class="cls-3" x="344.13" y="168.02" width="1.5" height="2.52"/><rect class="cls-3" x="344.13" y="163.52" width="1.5" height="2.52"/><rect class="cls-2" x="337.6" y="176.06" width="15" height="13.57"/><rect class="cls-3" x="344.13" y="186.11" width="1.5" height="2.52"/><rect class="cls-3" x="344.13" y="181.59" width="1.5" height="2.52"/><rect class="cls-3" x="344.13" y="177.09" width="1.5" height="2.52"/><rect class="cls-2" x="337.6" y="189.63" width="15" height="13.57"/><rect class="cls-3" x="344.13" y="199.67" width="1.5" height="2.52"/><rect class="cls-3" x="344.13" y="195.16" width="1.5" height="2.52"/><rect class="cls-3" x="344.13" y="190.66" width="1.5" height="2.52"/><path class="cls-2" d="M397.83,257.7v8.37a6.2,6.2,0,0,1-.06.62,4,4,0,0,1-.37,1.19L411,274.3a18.63,18.63,0,0,0,1.62-5.27,18.11,18.11,0,0,0,.24-2.74V257.7Z" transform="translate(-60.23 -54.5)"/><path class="cls-4" d="M405.72,267.81l-1.49-.22a7.18,7.18,0,0,1-.22,1.14,8.77,8.77,0,0,1-.35,1.1l1.4.52a7.59,7.59,0,0,0,.4-1.25A9.21,9.21,0,0,0,405.72,267.81Z" transform="translate(-60.23 -54.5)"/><rect class="cls-3" x="344.13" y="208.73" width="1.5" height="2.52"/><rect class="cls-3" x="344.13" y="204.22" width="1.5" height="2.52"/><path class="cls-2" d="M397.4,267.88a4.56,4.56,0,0,1-1.68,1.91,4.63,4.63,0,0,1-2.39.71v15A19.58,19.58,0,0,0,411,274.3Z" transform="translate(-60.23 -54.5)"/><path class="cls-4" d="M397,278l-.44-1.44a11.66,11.66,0,0,1-2.27.43l.13,1.5A13.35,13.35,0,0,0,397,278Z" transform="translate(-60.23 -54.5)"/><path class="cls-4" d="M401.11,275.8l-.94-1.17a11.3,11.3,0,0,1-1.95,1.24l.67,1.34A12.61,12.61,0,0,0,401.11,275.8Z" transform="translate(-60.23 -54.5)"/><path class="cls-4" d="M404.16,272.27l-1.3-.76a10.39,10.39,0,0,1-1.36,1.87l1.11,1A11.81,11.81,0,0,0,404.16,272.27Z" transform="translate(-60.23 -54.5)"/><rect class="cls-1" x="107.98" y="104.02" width="69.5" height="14.66" rx="5.53" ry="5.53"/><rect class="cls-1" x="110.98" y="134.02" width="69.5" height="14.66" rx="5.53" ry="5.53"/><rect class="cls-1" x="103.98" y="32" width="69.5" height="14.66" rx="5.53" ry="5.53"/><rect class="cls-1" x="32.77" width="69.5" height="21.5" rx="10.75" ry="10.75"/><rect class="cls-1" x="172.77" width="48.5" height="21.5" rx="10.75" ry="10.75"/><text class="cls-5" transform="translate(43.27 14.5)"><tspan class="cls-6">T</tspan><tspan class="cls-7" x="5.11" y="0">empl</tspan><tspan class="cls-8" x="30.79" y="0">a</tspan><tspan class="cls-9" x="36.53" y="0">t</tspan><tspan x="40.43" y="0">e</tspan></text><text class="cls-5" transform="translate(182.27 14.5)"><tspan class="cls-10">S</tspan><tspan x="5.99" y="0">c</tspan><tspan class="cls-11" x="11.36" y="0">r</tspan><tspan class="cls-12" x="15.34" y="0">ipt</tspan></text><rect class="cls-13" x="43.35" y="35.91" width="52.5" height="18.52" rx="6.22" ry="6.22"/><text class="cls-14" transform="translate(52.94 47.99)"><tspan class="cls-15">W</tspan><tspan x="7.73" y="0">idgets</tspan></text><rect class="cls-13" x="36.94" y="107.81" width="65.33" height="18.52" rx="6.22" ry="6.22"/><text class="cls-14" transform="translate(48.52 119.89)"><tspan class="cls-16">C</tspan><tspan x="5.17" y="0">o</tspan><tspan class="cls-17" x="10.35" y="0">n</tspan><tspan x="15.55" y="0">tainers</tspan></text><rect class="cls-13" x="38.46" y="186.47" width="61" height="18.52" rx="6.22" ry="6.22"/><text class="cls-14" transform="translate(50.04 198.56)"><tspan class="cls-15">V</tspan><tspan class="cls-18" x="5.46" y="0">i</tspan><tspan class="cls-17" x="7.92" y="0">e</tspan><tspan x="12.61" y="0">w</tspan><tspan class="cls-19" x="19.42" y="0">p</tspan><tspan x="24.81" y="0">o</tspan><tspan class="cls-20" x="29.99" y="0">r</tspan><tspan x="33.59" y="0">ts</tspan></text><rect class="cls-13" x="56.27" y="141.88" width="61" height="18.52" rx="6.22" ry="6.22"/><text class="cls-14" transform="translate(75.19 153.97)"><tspan class="cls-15">V</tspan><tspan class="cls-18" x="5.46" y="0">i</tspan><tspan class="cls-17" x="7.92" y="0">e</tspan><tspan class="cls-21" x="12.61" y="0">w</tspan><tspan x="19.28" y="0">s</tspan></text><line class="cls-22" x1="46.36" y1="66.5" x2="74.11" y2="66.5"/><line class="cls-22" x1="74.11" y1="107.05" x2="74.11" y2="66.5"/><line class="cls-22" x1="46.36" y1="107.05" x2="46.36" y2="66.5"/><line class="cls-22" x1="78.43" y1="105.11" x2="74.11" y2="107.05"/><line class="cls-22" x1="69.8" y1="104.71" x2="74.11" y2="107.05"/><line class="cls-22" x1="85.27" y1="160.87" x2="85.27" y2="186.47"/><line class="cls-22" x1="89.6" y1="164.04" x2="85.27" y2="160.87"/><line class="cls-22" x1="80.94" y1="164.71" x2="85.27" y2="160.87"/><line class="cls-22" x1="82.76" y1="54.43" x2="82.76" y2="107.81"/><line class="cls-22" x1="78.43" y1="57.6" x2="82.76" y2="54.43"/><line class="cls-22" x1="87.09" y1="58.27" x2="82.76" y2="54.43"/><text class="cls-23" transform="translate(17.77 156.4)"><tspan class="cls-24">c</tspan><tspan x="3.31" y="0">o</tspan><tspan class="cls-25" x="7.42" y="0">n</tspan><tspan class="cls-26" x="11.54" y="0">tains</tspan></text><text class="cls-23" transform="translate(46.35 64.56)"><tspan class="cls-24">c</tspan><tspan x="3.31" y="0">o</tspan><tspan class="cls-25" x="7.42" y="0">n</tspan><tspan class="cls-26" x="11.54" y="0">tains</tspan></text><line class="cls-22" x1="47.27" y1="185.82" x2="47.27" y2="126.98"/><line class="cls-22" x1="42.94" y1="182.64" x2="47.27" y2="185.82"/><line class="cls-22" x1="51.61" y1="181.98" x2="47.27" y2="185.82"/><text class="cls-23" transform="translate(84.93 81.12)"><tspan class="cls-24">c</tspan><tspan x="3.31" y="0">o</tspan><tspan class="cls-25" x="7.42" y="0">n</tspan><tspan class="cls-26" x="11.54" y="0">tains</tspan></text><text class="cls-23" transform="translate(213.93 64.56)">binds with</text><text class="cls-23" transform="translate(212.03 102.56)">binds with</text><text class="cls-27" transform="translate(87.7 137.94)">is a</text><text class="cls-27" transform="translate(89.94 175.96)"><tspan class="cls-28">r</tspan><tspan x="2.37" y="0">enders</tspan></text><line class="cls-22" x1="84.93" y1="127.08" x2="84.93" y2="141.33"/><line class="cls-22" x1="89.26" y1="130.25" x2="84.93" y2="127.08"/><line class="cls-22" x1="80.59" y1="130.92" x2="84.93" y2="127.08"/><line class="cls-22" x1="257.74" y1="81.12" x2="234.21" y2="81.12"/><line class="cls-22" x1="254.57" y1="85.45" x2="257.74" y2="81.12"/><line class="cls-22" x1="253.9" y1="76.78" x2="257.74" y2="81.12"/><line class="cls-22" x1="209.86" y1="90.38" x2="209.86" y2="107.05"/><line class="cls-22" x1="214.2" y1="93.55" x2="209.86" y2="90.38"/><line class="cls-22" x1="205.53" y1="94.22" x2="209.86" y2="90.38"/><line class="cls-22" x1="209.86" y1="71.6" x2="209.86" y2="52.92"/><line class="cls-22" x1="205.53" y1="68.42" x2="209.86" y2="71.6"/><line class="cls-22" x1="214.2" y1="67.76" x2="209.86" y2="71.6"/><text class="cls-23" transform="translate(288.02 64.56)">binds with</text><text class="cls-23" transform="translate(240.55 148.68)">binds with</text><line class="cls-22" x1="283.96" y1="71.6" x2="283.96" y2="52.92"/><line class="cls-22" x1="279.62" y1="68.42" x2="283.96" y2="71.6"/><line class="cls-22" x1="288.29" y1="67.76" x2="283.96" y2="71.6"/><text class="cls-23" transform="translate(213.13 137.94)">is a</text><line class="cls-22" x1="210.36" y1="127.08" x2="210.36" y2="141.33"/><line class="cls-22" x1="214.7" y1="130.25" x2="210.36" y2="127.08"/><line class="cls-22" x1="206.03" y1="130.92" x2="210.36" y2="127.08"/><text class="cls-23" transform="translate(213.93 178.31)"><tspan class="cls-28">r</tspan><tspan x="2.37" y="0">enders</tspan></text><line class="cls-22" x1="210.36" y1="160.45" x2="210.36" y2="187.34"/><line class="cls-22" x1="214.7" y1="163.63" x2="210.36" y2="160.45"/><line class="cls-22" x1="206.03" y1="164.29" x2="210.36" y2="160.45"/><line class="cls-22" x1="180.69" y1="43.66" x2="96.77" y2="43.66"/><line class="cls-22" x1="177.51" y1="47.99" x2="180.69" y2="43.66"/><line class="cls-22" x1="176.85" y1="39.33" x2="180.69" y2="43.66"/><rect class="cls-29" x="181.45" y="34.4" width="52.5" height="18.52" rx="6.22" ry="6.22"/><text class="cls-30" transform="translate(191.03 46.49)"><tspan class="cls-15">W</tspan><tspan x="7.73" y="0">idgets</tspan></text><line class="cls-22" x1="181.69" y1="117" x2="102.27" y2="117"/><line class="cls-22" x1="178.51" y1="121.33" x2="181.69" y2="117"/><line class="cls-22" x1="177.85" y1="112.67" x2="181.69" y2="117"/><rect class="cls-29" x="181.45" y="107.74" width="52.5" height="18.52" rx="6.22" ry="6.22"/><text class="cls-30" transform="translate(188.03 119.83)"><tspan class="cls-16">C</tspan><tspan x="5.17" y="0">o</tspan><tspan class="cls-17" x="10.35" y="0">n</tspan><tspan x="15.55" y="0">tainer</tspan></text><line class="cls-22" x1="181.69" y1="147.14" x2="117.27" y2="147.14"/><line class="cls-22" x1="178.51" y1="151.47" x2="181.69" y2="147.14"/><line class="cls-22" x1="177.85" y1="142.81" x2="181.69" y2="147.14"/><rect class="cls-29" x="181.45" y="141.88" width="52.5" height="18.52" rx="6.22" ry="6.22"/><text class="cls-30" transform="translate(198.03 153.97)"><tspan class="cls-15">V</tspan><tspan class="cls-18" x="5.46" y="0">i</tspan><tspan class="cls-17" x="7.92" y="0">e</tspan><tspan x="12.61" y="0">w</tspan></text><rect class="cls-29" x="181.45" y="187.34" width="52.5" height="18.52" rx="6.22" ry="6.22"/><text class="cls-30" transform="translate(190.03 199.43)"><tspan class="cls-15">V</tspan><tspan class="cls-18" x="5.46" y="0">i</tspan><tspan class="cls-17" x="7.92" y="0">e</tspan><tspan x="12.61" y="0">w</tspan><tspan class="cls-19" x="19.42" y="0">p</tspan><tspan x="24.81" y="0">o</tspan><tspan class="cls-20" x="29.99" y="0">r</tspan><tspan x="33.59" y="0">t</tspan></text><rect class="cls-29" x="181.71" y="71.86" width="52.5" height="18.52" rx="6.22" ry="6.22"/><text class="cls-30" transform="translate(188.3 83.94)">D<tspan class="cls-31" x="6.25" y="0">a</tspan><tspan x="10.91" y="0">ta</tspan><tspan class="cls-32" x="18.94" y="0">M</tspan><tspan x="26.56" y="0">a</tspan><tspan class="cls-20" x="31.3" y="0">r</tspan><tspan class="cls-33" x="34.9" y="0">t</tspan></text><rect class="cls-29" x="258.2" y="33.9" width="52.5" height="18.52" rx="6.22" ry="6.22"/><text class="cls-30" transform="translate(261.78 45.98)"><tspan class="cls-34">E</tspan><tspan class="cls-35" x="4.68" y="0">v</tspan><tspan x="9.31" y="0">e</tspan><tspan class="cls-36" x="14.04" y="0">n</tspan><tspan class="cls-33" x="19.25" y="0">t</tspan><tspan class="cls-19" x="22.54" y="0">G</tspan><tspan class="cls-31" x="28.69" y="0">r</tspan><tspan x="32.03" y="0">oup</tspan></text><rect class="cls-29" x="285.12" y="140.88" width="52.5" height="18.52" rx="6.22" ry="6.22"/><text class="cls-30" transform="translate(288.71 152.97)"><tspan class="cls-15">V</tspan><tspan class="cls-18" x="5.46" y="0">i</tspan><tspan class="cls-17" x="7.92" y="0">e</tspan><tspan x="12.61" y="0">w</tspan><tspan class="cls-19" x="19.42" y="0">Mo</tspan><tspan class="cls-18" x="32.24" y="0">del</tspan></text><rect class="cls-29" x="258.2" y="71.36" width="52.5" height="18.52" rx="6.22" ry="6.22"/><text class="cls-30" transform="translate(267.78 83.44)">IUI<tspan class="cls-37" x="11.23" y="0">-</tspan><tspan class="cls-38" x="14.23" y="0">C</tspan><tspan x="19.54" y="0">lass</tspan></text><text class="cls-23" transform="translate(110.95 41.38)">c<tspan class="cls-28" x="3.35" y="0">r</tspan><tspan x="5.73" y="0">e</tspan><tspan class="cls-25" x="9.48" y="0">a</tspan><tspan class="cls-39" x="13.06" y="0">t</tspan><tspan x="15.49" y="0">es instan</tspan><tspan class="cls-40" x="42.9" y="0">c</tspan><tspan x="46.21" y="0">e of</tspan></text><text class="cls-41" transform="translate(107.98 113.16)">c<tspan class="cls-42" x="3.79" y="0">r</tspan><tspan class="cls-43" x="6.47" y="0">e</tspan><tspan class="cls-44" x="10.71" y="0">a</tspan><tspan class="cls-45" x="14.75" y="0">t</tspan><tspan x="17.5" y="0">es instan</tspan><tspan class="cls-45" x="48.47" y="0">c</tspan><tspan class="cls-43" x="52.21" y="0">e of</tspan></text><rect class="cls-1" x="107.98" y="183.6" width="69.5" height="14.66" rx="5.53" ry="5.53"/><line class="cls-22" x1="183.19" y1="196.58" x2="100.77" y2="196.58"/><line class="cls-22" x1="178.51" y1="200.91" x2="181.69" y2="196.58"/><line class="cls-22" x1="177.85" y1="192.24" x2="181.69" y2="196.58"/><text class="cls-41" transform="translate(107.98 192.74)">c<tspan class="cls-42" x="3.79" y="0">r</tspan><tspan class="cls-43" x="6.47" y="0">e</tspan><tspan class="cls-44" x="10.71" y="0">a</tspan><tspan class="cls-45" x="14.75" y="0">t</tspan><tspan x="17.5" y="0">es instan</tspan><tspan class="cls-45" x="48.47" y="0">c</tspan><tspan class="cls-43" x="52.21" y="0">e of</tspan></text><text class="cls-41" transform="translate(116.27 142.97)">c<tspan class="cls-42" x="3.79" y="0">r</tspan><tspan class="cls-43" x="6.47" y="0">e</tspan><tspan class="cls-44" x="10.71" y="0">a</tspan><tspan class="cls-45" x="14.75" y="0">t</tspan><tspan x="17.5" y="0">es instan</tspan><tspan class="cls-45" x="48.47" y="0">c</tspan><tspan class="cls-43" x="52.21" y="0">e of</tspan></text><text class="cls-23" transform="translate(240.55 79.62)">is a</text><line class="cls-22" x1="234.21" y1="151.14" x2="283.96" y2="151.14"/><line class="cls-22" x1="237.39" y1="155.47" x2="234.21" y2="151.14"/><line class="cls-22" x1="238.05" y1="146.81" x2="234.21" y2="151.14"/></svg>