<svg id="Layer_1" data-name="Layer 1" xmlns="http://www.w3.org/2000/svg" viewBox="0 0 507.67 372.08"><defs><style>.cls-1{fill:#efe9f4;}.cls-1,.cls-13,.cls-137,.cls-2,.cls-24,.cls-34,.cls-49{stroke:#231f20;}.cls-1,.cls-13,.cls-137,.cls-2,.cls-24,.cls-31,.cls-34,.cls-35,.cls-49{stroke-miterlimit:10;}.cls-2{fill:#7f6cb1;}.cls-3{font-size:14.65px;}.cls-116,.cls-138,.cls-18,.cls-25,.cls-3,.cls-50,.cls-66,.cls-8,.cls-81,.cls-93{fill:#231f20;}.cls-116,.cls-14,.cls-18,.cls-25,.cls-3,.cls-32,.cls-8,.cls-93{font-family:MyriadPro-Bold, Myriad Pro;font-weight:700;}.cls-4{letter-spacing:-0.01em;}.cls-5{letter-spacing:0em;}.cls-6{letter-spacing:-0.01em;}.cls-7{letter-spacing:0em;}.cls-8{font-size:12px;}.cls-9{letter-spacing:0em;}.cls-10{letter-spacing:-0.06em;}.cls-11{letter-spacing:-0.05em;}.cls-12{letter-spacing:0em;}.cls-13,.cls-35,.cls-98{fill:#432a75;}.cls-14{font-size:9.62px;}.cls-14,.cls-32,.cls-36,.cls-49,.cls-80{fill:#fff;}.cls-15{letter-spacing:-0.02em;}.cls-16{letter-spacing:0em;}.cls-17{letter-spacing:-0.01em;}.cls-18{font-size:10.58px;}.cls-19{letter-spacing:-0.03em;}.cls-20{letter-spacing:-0.01em;}.cls-21{letter-spacing:0em;}.cls-22{letter-spacing:0em;}.cls-23{letter-spacing:0.02em;}.cls-24{fill:#dec8e2;}.cls-116,.cls-25{font-size:9.17px;}.cls-116,.cls-26{letter-spacing:-0.03em;}.cls-27{letter-spacing:0em;}.cls-28{letter-spacing:-0.01em;}.cls-29{letter-spacing:0em;}.cls-30{letter-spacing:-0.01em;}.cls-127,.cls-31,.cls-34{fill:#66499e;}.cls-31,.cls-35{stroke:#fff;}.cls-32,.cls-93{font-size:8.97px;}.cls-33{letter-spacing:-0.03em;}.cls-36,.cls-66{font-size:7px;}.cls-36,.cls-50,.cls-66{font-family:MyriadPro-Regular, Myriad Pro;}.cls-37{letter-spacing:-0.04em;}.cls-38{letter-spacing:-0.06em;}.cls-39{letter-spacing:-0.01em;}.cls-40{letter-spacing:0em;}.cls-41{letter-spacing:-0.01em;}.cls-42{letter-spacing:0em;}.cls-43{letter-spacing:-0.01em;}.cls-44{letter-spacing:-0.04em;}.cls-45{letter-spacing:-0.02em;}.cls-46{letter-spacing:0em;}.cls-47{letter-spacing:-0.01em;}.cls-48{letter-spacing:-0.01em;}.cls-50{font-size:6.67px;}.cls-51{letter-spacing:-0.01em;}.cls-52{letter-spacing:-0.01em;}.cls-53{letter-spacing:0em;}.cls-54{letter-spacing:-0.04em;}.cls-55{letter-spacing:-0.01em;}.cls-56{letter-spacing:0.02em;}.cls-57{letter-spacing:0em;}.cls-58{letter-spacing:-0.01em;}.cls-59{letter-spacing:0.01em;}.cls-60{letter-spacing:0.02em;}.cls-61{letter-spacing:-0.07em;}.cls-62{letter-spacing:-0.01em;}.cls-63{letter-spacing:0.01em;}.cls-64{letter-spacing:0.01em;}.cls-65{letter-spacing:-0.04em;}.cls-67{letter-spacing:-0.02em;}.cls-68{letter-spacing:0.02em;}.cls-69{letter-spacing:-0.01em;}.cls-70{letter-spacing:-0.01em;}.cls-71{letter-spacing:0em;}.cls-72{letter-spacing:-0.04em;}.cls-73{letter-spacing:-0.05em;}.cls-74{letter-spacing:0em;}.cls-75{letter-spacing:0em;}.cls-76{letter-spacing:-0.01em;}.cls-77{letter-spacing:-0.04em;}.cls-78{letter-spacing:0.02em;}.cls-79{letter-spacing:-0.01em;}.cls-82{letter-spacing:-0.04em;}.cls-83{letter-spacing:0em;}.cls-84{letter-spacing:-0.01em;}.cls-85{letter-spacing:0em;}.cls-86{letter-spacing:0.01em;}.cls-87{letter-spacing:0.01em;}.cls-88{letter-spacing:-0.02em;}.cls-89{letter-spacing:0.02em;}.cls-90{letter-spacing:0em;}.cls-91{letter-spacing:-0.01em;}.cls-92{letter-spacing:-0.04em;}.cls-94{letter-spacing:0em;}.cls-95{letter-spacing:-0.01em;}.cls-96{letter-spacing:0em;}.cls-97{letter-spacing:0.02em;}.cls-99{letter-spacing:-0.01em;}.cls-100{letter-spacing:-0.02em;}.cls-101{letter-spacing:-0.01em;}.cls-102{letter-spacing:0em;}.cls-103{letter-spacing:-0.01em;}.cls-104{letter-spacing:-0.04em;}.cls-105{letter-spacing:-0.02em;}.cls-106{letter-spacing:0em;}.cls-107{letter-spacing:-0.01em;}.cls-108{letter-spacing:-0.01em;}.cls-109{letter-spacing:-0.01em;}.cls-110{letter-spacing:0em;}.cls-111{letter-spacing:0em;}.cls-112{letter-spacing:0em;}.cls-113{letter-spacing:-0.02em;}.cls-114{letter-spacing:0.02em;}.cls-115{letter-spacing:-0.01em;}.cls-117{letter-spacing:0em;}.cls-118{letter-spacing:0.01em;}.cls-119{letter-spacing:0em;}.cls-120{letter-spacing:-0.01em;}.cls-121{letter-spacing:-0.01em;}.cls-122{letter-spacing:-0.01em;}.cls-123{letter-spacing:-0.01em;}.cls-124{letter-spacing:-0.01em;}.cls-125{letter-spacing:0.01em;}.cls-126{letter-spacing:0.01em;}.cls-128{letter-spacing:0em;}.cls-129{letter-spacing:0em;}.cls-130{letter-spacing:-0.01em;}.cls-131{letter-spacing:-0.02em;}.cls-132{letter-spacing:-0.01em;}.cls-133{letter-spacing:-0.04em;}.cls-134{letter-spacing:-0.05em;}.cls-135{letter-spacing:-0.06em;}.cls-136{letter-spacing:-0.08em;}.cls-137{fill:#664a9e;}.cls-138{font-size:11.96px;font-family:MyriadPro-It, Myriad Pro;font-style:italic;}.cls-139{letter-spacing:-0.01em;}.cls-140{letter-spacing:-0.01em;}.cls-141{letter-spacing:0em;}.cls-142{letter-spacing:0em;}</style></defs><title>ext-arch</title><rect class="cls-1" x="0.5" y="0.5" width="506.67" height="371.08" rx="17.5" ry="17.5"/><rect class="cls-2" x="11.33" y="26.25" width="262" height="303.67" rx="9.33" ry="9.33"/><rect class="cls-2" x="282.33" y="26.25" width="217" height="303.67" rx="9.33" ry="9.33"/><text class="cls-3" transform="translate(19 16.09)"><tspan class="cls-4">A</tspan><tspan x="9.52" y="0">ppli</tspan><tspan class="cls-5" x="35.09" y="0">c</tspan><tspan class="cls-6" x="41.75" y="0">a</tspan><tspan class="cls-7" x="49.37" y="0">tion</tspan></text><text class="cls-8" transform="translate(25.06 39.08)">H<tspan class="cls-9" x="8.27" y="0">T</tspan><tspan x="14.8" y="0">ML</tspan></text><text class="cls-8" transform="translate(290.56 39.08)">J<tspan class="cls-10" x="4.93" y="0">A</tspan><tspan class="cls-11" x="12.1" y="0">V</tspan><tspan class="cls-12" x="19.08" y="0">ASCRIPT</tspan></text><rect class="cls-13" x="122.17" y="44.23" width="140.17" height="107.52" rx="9.26" ry="9.26"/><text class="cls-14" transform="translate(130.42 54.51)"><tspan class="cls-15">C</tspan><tspan class="cls-16" x="5.54" y="0">o</tspan><tspan class="cls-17" x="11.09" y="0">n</tspan><tspan x="16.67" y="0">tainer</tspan></text><rect class="cls-1" x="21.83" y="161.36" width="162.5" height="162.5" rx="13.92" ry="13.92"/><text class="cls-18" transform="translate(33.09 171.98)"><tspan class="cls-19">V</tspan><tspan x="6.44" y="0">i</tspan><tspan class="cls-20" x="9.34" y="0">e</tspan><tspan x="14.86" y="0">w</tspan><tspan class="cls-21" x="22.9" y="0">p</tspan><tspan class="cls-22" x="29.25" y="0">o</tspan><tspan class="cls-23" x="35.36" y="0">r</tspan><tspan x="39.6" y="0">t</tspan></text><rect class="cls-24" x="31.09" y="177.56" width="144.91" height="100.19" rx="10.3" ry="10.3"/><text class="cls-25" transform="translate(39.33 187.75) scale(1.07 1)"><tspan class="cls-26">V</tspan><tspan class="cls-27" x="5.59" y="0">i</tspan><tspan class="cls-28" x="8.1" y="0">e</tspan><tspan class="cls-29" x="12.89" y="0">w (Rende</tspan><tspan class="cls-30" x="50.55" y="0">r</tspan><tspan x="53.96" y="0">ed)</tspan></text><rect class="cls-31" x="181.21" y="60.68" width="74.12" height="15.4" rx="4.92" ry="4.92"/><text class="cls-32" transform="translate(187.87 70.85)"><tspan class="cls-33">W</tspan><tspan x="7.73" y="0">idget</tspan></text><rect class="cls-34" x="21.83" y="44.23" width="92.17" height="107.52" rx="9.26" ry="9.26"/><text class="cls-32" transform="translate(29.42 54.32)"><tspan class="cls-33">W</tspan><tspan x="7.73" y="0">idget</tspan></text><rect class="cls-35" x="98.5" y="193.75" width="70.58" height="42" rx="9.26" ry="9.26"/><rect class="cls-34" x="37.62" y="194.15" width="56.05" height="41.6" rx="9.26" ry="9.26"/><text class="cls-36" transform="translate(27.06 134.36)"><tspan xml:space="preserve">       HTML</tspan><tspan class="cls-37" x="27.36" y="0"> </tspan><tspan class="cls-38" x="28.56" y="0">T</tspan><tspan x="31.59" y="0">ags which will </tspan><tspan class="cls-39" x="0" y="8.4">r</tspan><tspan x="2.22" y="8.4">ender i</tspan><tspan class="cls-40" x="22.48" y="8.4">n</tspan><tspan class="cls-41" x="26.33" y="8.4">t</tspan><tspan class="cls-42" x="28.61" y="8.4">o UI </tspan><tspan class="cls-43" x="41.62" y="8.4">C</tspan><tspan x="45.6" y="8.4">ompone</tspan><tspan class="cls-40" x="70.5" y="8.4">n</tspan><tspan class="cls-42" x="74.36" y="8.4">t</tspan><tspan class="cls-43" x="76.68" y="8.4">s</tspan><tspan x="79.37" y="8.4">.</tspan></text><text class="cls-36" transform="translate(187.06 128.06)"><tspan xml:space="preserve">     </tspan><tspan class="cls-44" x="7.42" y="0"> </tspan><tspan class="cls-45" x="8.65" y="0">W</tspan><tspan class="cls-46" x="14.46" y="0">r</tspan><tspan x="16.72" y="0">appers </tspan><tspan class="cls-47" x="38.11" y="0">f</tspan><tspan class="cls-42" x="40.06" y="0">or other</tspan><tspan class="cls-41" x="0" y="8.4">c</tspan><tspan x="3.09" y="8.4">o</tspan><tspan class="cls-40" x="6.94" y="8.4">n</tspan><tspan x="10.79" y="8.4">tainers and widget</tspan><tspan class="cls-48" x="65.23" y="8.4">s</tspan><tspan x="67.92" y="8.4">.</tspan></text><text x="-47.67" y="-72.75"></text><rect class="cls-49" x="36.42" y="62.63" width="54.04" height="14.19" rx="7.1" ry="7.1"/><rect class="cls-49" x="36.42" y="80.99" width="54.04" height="14.05" rx="7.02" ry="7.02"/><rect class="cls-49" x="37.29" y="100.21" width="54.04" height="19.14" rx="8.04" ry="8.04"/><text class="cls-50" transform="translate(44.11 71.93)"><tspan class="cls-51">E</tspan><tspan class="cls-52" x="3.24" y="0">v</tspan><tspan x="6.38" y="0">e</tspan><tspan class="cls-53" x="9.72" y="0">n</tspan><tspan x="13.39" y="0">t Binding</tspan></text><rect class="cls-49" x="127.17" y="102.06" width="54.04" height="14.19" rx="7.1" ry="7.1"/><text class="cls-50" transform="translate(134.86 111.36)"><tspan class="cls-51">E</tspan><tspan class="cls-52" x="3.24" y="0">v</tspan><tspan x="6.38" y="0">e</tspan><tspan class="cls-53" x="9.72" y="0">n</tspan><tspan x="13.39" y="0">t Binding</tspan></text><text class="cls-50" transform="translate(45.39 90.58)">D<tspan class="cls-53" x="4.44" y="0">a</tspan><tspan x="7.63" y="0">ta Binding</tspan></text><rect class="cls-49" x="197.75" y="102.13" width="54.04" height="14.05" rx="7.02" ry="7.02"/><text class="cls-50" transform="translate(206.72 111.72)">D<tspan class="cls-53" x="4.44" y="0">a</tspan><tspan x="7.63" y="0">ta Binding</tspan></text><text class="cls-50" transform="translate(42.31 108.06)"><tspan class="cls-54">T</tspan><tspan class="cls-55" x="3.05" y="0">w</tspan><tspan class="cls-56" x="7.89" y="0">o</tspan><tspan class="cls-57" x="11.65" y="0">-</tspan><tspan class="cls-53" x="13.67" y="0">w</tspan><tspan class="cls-58" x="18.55" y="0">a</tspan><tspan x="21.71" y="0">y </tspan><tspan class="cls-59" x="26.27" y="0">M</tspan><tspan x="31.67" y="0">odel</tspan><tspan x="11.1" y="8">binding</tspan></text><rect class="cls-49" x="127.17" y="120.21" width="54.04" height="19.14" rx="8.04" ry="8.04"/><text class="cls-50" transform="translate(132.18 128.06)"><tspan class="cls-54">T</tspan><tspan class="cls-55" x="3.05" y="0">w</tspan><tspan class="cls-56" x="7.89" y="0">o</tspan><tspan class="cls-57" x="11.65" y="0">-</tspan><tspan class="cls-53" x="13.67" y="0">w</tspan><tspan class="cls-58" x="18.55" y="0">a</tspan><tspan x="21.71" y="0">y </tspan><tspan class="cls-59" x="26.27" y="0">M</tspan><tspan x="31.67" y="0">odel</tspan><tspan x="11.1" y="8">binding</tspan></text><text class="cls-36" transform="translate(137.48 147.32)">Each <tspan class="cls-41" x="15.32" y="0">c</tspan><tspan x="18.42" y="0">o</tspan><tspan class="cls-40" x="22.26" y="0">n</tspan><tspan x="26.12" y="0">tainer has i</tspan><tspan class="cls-60" x="57.76" y="0">t</tspan><tspan class="cls-61" x="60.23" y="0">’</tspan><tspan x="61.17" y="0">s </tspan><tspan class="cls-62" x="65.43" y="0">o</tspan><tspan x="69.22" y="0">wn fun</tspan><tspan class="cls-63" x="89.53" y="0">c</tspan><tspan class="cls-42" x="92.76" y="0">tionali</tspan><tspan class="cls-64" x="111.1" y="0">t</tspan><tspan class="cls-65" x="113.48" y="0">y</tspan><tspan x="116.51" y="0">.</tspan></text><text class="cls-66" transform="translate(37.62 293.98) scale(0.99 1)"><tspan class="cls-67">V</tspan><tspan x="3.79" y="0">iewpo</tspan><tspan class="cls-68" x="21.92" y="0">r</tspan><tspan x="24.37" y="0">ts a</tspan><tspan class="cls-69" x="34.32" y="0">r</tspan><tspan x="36.54" y="0">e the pla</tspan><tspan class="cls-70" x="61.73" y="0">c</tspan><tspan class="cls-71" x="64.83" y="0">es whe</tspan><tspan class="cls-69" x="85.13" y="0">r</tspan><tspan class="cls-71" x="87.35" y="0">e</tspan><tspan class="cls-72" x="90.86" y="0"> </tspan><tspan class="cls-67" x="92.09" y="0">V</tspan><tspan x="95.88" y="0">ie</tspan><tspan class="cls-70" x="101.03" y="0">w</tspan><tspan class="cls-71" x="106.14" y="0">s will </tspan><tspan class="cls-69" x="121.97" y="0">r</tspan><tspan x="124.19" y="0">ende</tspan><tspan class="cls-73" x="139.04" y="0">r</tspan><tspan class="cls-74" x="140.96" y="0">.</tspan><tspan class="cls-75" x="0" y="8.4">D</tspan><tspan class="cls-71" x="4.69" y="8.4">efault</tspan><tspan class="cls-67" x="21.44" y="8.4">V</tspan><tspan class="cls-71" x="25.23" y="8.4">iew can be set </tspan><tspan class="cls-76" x="67.95" y="8.4">t</tspan><tspan x="70.22" y="8.4">o</tspan><tspan class="cls-77" x="74.07" y="8.4"> </tspan><tspan class="cls-67" x="75.3" y="8.4">V</tspan><tspan x="79.09" y="8.4">iewpo</tspan><tspan class="cls-78" x="97.21" y="8.4">r</tspan><tspan x="99.67" y="8.4">t</tspan><tspan class="cls-79" x="101.99" y="8.4">s</tspan><tspan x="104.68" y="8.4">.</tspan></text><circle class="cls-80" cx="33.32" cy="132.48" r="1.23"/><circle class="cls-80" cx="133.66" cy="145.2" r="1.23"/><circle class="cls-81" cx="33.66" cy="292.03" r="1.23"/><circle class="cls-81" cx="33.66" cy="300.31" r="1.23"/><text class="cls-36" transform="translate(300.29 300.82) scale(0.99 1)"><tspan class="cls-82">T</tspan><tspan class="cls-69" x="3.2" y="0">w</tspan><tspan x="8.28" y="0">o </tspan><tspan class="cls-83" x="13.61" y="0">w</tspan><tspan class="cls-84" x="18.73" y="0">a</tspan><tspan x="22.05" y="0">y d</tspan><tspan class="cls-85" x="30.78" y="0">a</tspan><tspan x="34.12" y="0">tabinding be</tspan><tspan class="cls-86" x="71.68" y="0">t</tspan><tspan class="cls-69" x="74.06" y="0">w</tspan><tspan x="79.14" y="0">een </tspan><tspan class="cls-87" x="91.52" y="0">M</tspan><tspan x="97.19" y="0">odels and</tspan><tspan class="cls-72" x="125.61" y="0"> </tspan><tspan class="cls-88" x="126.84" y="0">W</tspan><tspan x="132.65" y="0">idgets</tspan><tspan x="0" y="8.4">No dependen</tspan><tspan class="cls-89" x="40.1" y="8.4">c</tspan><tspan x="43.36" y="8.4">y of c</tspan><tspan class="cls-69" x="58.65" y="8.4">r</tspan><tspan x="60.87" y="8.4">e</tspan><tspan class="cls-85" x="64.38" y="8.4">a</tspan><tspan x="67.72" y="8.4">tion sequen</tspan><tspan class="cls-70" x="102.36" y="8.4">c</tspan><tspan class="cls-71" x="105.45" y="8.4">e among </tspan><tspan class="cls-83" x="132.78" y="8.4">v</tspan><tspan class="cls-74" x="136.12" y="8.4">a</tspan><tspan class="cls-90" x="139.49" y="8.4">r</tspan><tspan x="141.81" y="8.4">ious binding</tspan><tspan class="cls-79" x="178.29" y="8.4">s</tspan><tspan x="180.99" y="8.4">.</tspan><tspan class="cls-91" x="0" y="16.8">A</tspan><tspan class="cls-74" x="4.2" y="16.8">chie</tspan><tspan class="cls-69" x="16.37" y="16.8">v</tspan><tspan class="cls-71" x="19.66" y="16.8">e mo</tspan><tspan class="cls-69" x="34.33" y="16.8">r</tspan><tspan x="36.55" y="16.8">e with less j</tspan><tspan class="cls-84" x="69.91" y="16.8">a</tspan><tspan class="cls-83" x="73.23" y="16.8">v</tspan><tspan class="cls-74" x="76.56" y="16.8">asc</tspan><tspan class="cls-90" x="85.85" y="16.8">r</tspan><tspan x="88.16" y="16.8">ipt easil</tspan><tspan class="cls-92" x="110.53" y="16.8">y</tspan><tspan class="cls-74" x="113.55" y="16.8">.</tspan></text><circle class="cls-80" cx="296.33" cy="299.15" r="1.23"/><circle class="cls-80" cx="189.1" cy="125.97" r="1.23"/><text class="cls-32" transform="translate(46.42 204.57)"><tspan class="cls-33">W</tspan><tspan x="7.73" y="0">idget</tspan></text><text class="cls-14" transform="translate(106.43 205.32)"><tspan class="cls-15">C</tspan><tspan class="cls-16" x="5.54" y="0">o</tspan><tspan class="cls-17" x="11.09" y="0">n</tspan><tspan x="16.67" y="0">tainer</tspan></text><rect class="cls-24" x="189.1" y="164.65" width="73.23" height="159.21" rx="10.3" ry="10.3"/><rect class="cls-1" x="125.88" y="60.68" width="51.79" height="37.31" rx="7.12" ry="7.12"/><text class="cls-93" transform="translate(130.42 70.85)"><tspan class="cls-33">V</tspan><tspan class="cls-94" x="5.46" y="0">i</tspan><tspan class="cls-95" x="7.92" y="0">e</tspan><tspan x="12.61" y="0">w</tspan><tspan class="cls-96" x="19.42" y="0">p</tspan><tspan x="24.81" y="0">o</tspan><tspan class="cls-97" x="29.99" y="0">r</tspan><tspan x="33.59" y="0">t</tspan></text><rect class="cls-98" x="290.56" y="52.19" width="203.1" height="61.39" rx="7.12" ry="7.12"/><text class="cls-32" transform="translate(295.1 62.36)"><tspan class="cls-99">E</tspan><tspan class="cls-100" x="4.68" y="0">v</tspan><tspan x="9.31" y="0">e</tspan><tspan class="cls-101" x="14.04" y="0">n</tspan><tspan class="cls-102" x="19.25" y="0">t</tspan><tspan class="cls-96" x="22.54" y="0">G</tspan><tspan class="cls-103" x="28.69" y="0">r</tspan><tspan x="32.03" y="0">oups</tspan></text><circle class="cls-81" cx="144.66" cy="85.2" r="1.23"/><circle class="cls-81" cx="151.66" cy="85.2" r="1.23"/><circle class="cls-81" cx="158.66" cy="85.2" r="1.23"/><text class="cls-66" transform="translate(37.29 246.46)"><tspan xml:space="preserve">    </tspan><tspan class="cls-104" x="5.94" y="0"> </tspan><tspan class="cls-105" x="7.17" y="0">V</tspan><tspan class="cls-106" x="10.96" y="0">ie</tspan><tspan class="cls-107" x="16.11" y="0">w</tspan><tspan x="21.22" y="0">s can be </tspan><tspan class="cls-108" x="46.33" y="0">r</tspan><tspan class="cls-42" x="48.54" y="0">ende</tspan><tspan class="cls-108" x="63.39" y="0">r</tspan><tspan x="65.61" y="0">ed </tspan><tspan class="cls-108" x="74.55" y="0">r</tspan><tspan class="cls-42" x="76.77" y="0">emo</tspan><tspan class="cls-41" x="89.96" y="0">t</tspan><tspan class="cls-42" x="92.23" y="0">ely th</tspan><tspan class="cls-108" x="108.37" y="0">r</tspan><tspan class="cls-42" x="110.59" y="0">ough</tspan><tspan x="0" y="8.4" xml:space="preserve"> J</tspan><tspan class="cls-109" x="4.07" y="8.4">a</tspan><tspan class="cls-40" x="7.39" y="8.4">v</tspan><tspan x="10.73" y="8.4">asc</tspan><tspan class="cls-110" x="20.01" y="8.4">r</tspan><tspan x="22.33" y="8.4">ip</tspan><tspan class="cls-111" x="27.95" y="8.4">t</tspan><tspan x="30.25" y="8.4">.</tspan><tspan x="0" y="16.8" xml:space="preserve">     </tspan><tspan class="cls-112" x="7.42" y="16.8">M</tspan><tspan x="13.07" y="16.8">ultiple</tspan><tspan class="cls-104" x="31.67" y="16.8"> </tspan><tspan class="cls-113" x="32.91" y="16.8">V</tspan><tspan class="cls-106" x="36.7" y="16.8">ie</tspan><tspan class="cls-41" x="41.85" y="16.8">w</tspan><tspan x="46.96" y="16.8">s can be </tspan><tspan class="cls-39" x="72.06" y="16.8">r</tspan><tspan x="74.28" y="16.8">ende</tspan><tspan class="cls-108" x="89.13" y="16.8">r</tspan><tspan class="cls-42" x="91.35" y="16.8">ed </tspan><tspan class="cls-41" x="100.29" y="16.8">t</tspan><tspan class="cls-42" x="102.56" y="16.8">o a single</tspan><tspan x="0" y="25.2">viewpo</tspan><tspan class="cls-114" x="21.49" y="25.2">r</tspan><tspan class="cls-42" x="23.95" y="25.2">t (</tspan><tspan class="cls-40" x="29.74" y="25.2">a</tspan><tspan x="33.08" y="25.2">t di</tspan><tspan class="cls-47" x="42.47" y="25.2">ff</tspan><tspan class="cls-42" x="46.46" y="25.2">e</tspan><tspan class="cls-108" x="49.97" y="25.2">r</tspan><tspan x="52.18" y="25.2">e</tspan><tspan class="cls-40" x="55.69" y="25.2">n</tspan><tspan class="cls-42" x="59.55" y="25.2">t instan</tspan><tspan class="cls-115" x="81.22" y="25.2">c</tspan><tspan class="cls-42" x="84.31" y="25.2">es)</tspan></text><text class="cls-116" transform="translate(194 177.56) scale(1.07 1)">V<tspan class="cls-27" x="5.59" y="0">i</tspan><tspan class="cls-28" x="8.1" y="0">e</tspan><tspan class="cls-29" x="12.89" y="0">w </tspan></text><circle class="cls-80" cx="125.43" cy="221.58" r="1.23"/><circle class="cls-80" cx="132.43" cy="221.58" r="1.23"/><circle class="cls-80" cx="139.43" cy="221.58" r="1.23"/><rect class="cls-98" x="198.04" y="202.08" width="55.79" height="22.42" rx="9.26" ry="9.26"/><text class="cls-14" transform="translate(205.97 213.65)"><tspan class="cls-15">C</tspan><tspan class="cls-16" x="5.54" y="0">o</tspan><tspan class="cls-17" x="11.09" y="0">n</tspan><tspan x="16.67" y="0">tainer</tspan></text><circle class="cls-81" cx="218.98" cy="217.92" r="1.23"/><circle class="cls-81" cx="225.98" cy="217.92" r="1.23"/><circle class="cls-81" cx="232.98" cy="217.92" r="1.23"/><rect class="cls-35" x="181.21" y="79.33" width="74.12" height="18.66" rx="4.51" ry="4.51"/><text class="cls-14" transform="translate(186.37 87.92)"><tspan class="cls-15">C</tspan><tspan class="cls-16" x="5.54" y="0">o</tspan><tspan class="cls-17" x="11.09" y="0">n</tspan><tspan x="16.67" y="0">tainer</tspan></text><circle class="cls-80" cx="210.65" cy="92.24" r="1.18"/><circle class="cls-80" cx="217.37" cy="92.18" r="1.23"/><circle class="cls-80" cx="224.09" cy="92.24" r="1.18"/><text class="cls-66" transform="translate(198.04 268.79)"><tspan xml:space="preserve">     </tspan><tspan class="cls-111" x="7.42" y="0">C</tspan><tspan class="cls-39" x="11.46" y="0">r</tspan><tspan x="13.68" y="0">e</tspan><tspan class="cls-40" x="17.18" y="0">a</tspan><tspan class="cls-41" x="20.53" y="0">t</tspan><tspan x="22.81" y="0">e </tspan><tspan class="cls-39" x="27.8" y="0">r</tspan><tspan x="30.02" y="0">eusable</tspan><tspan class="cls-41" x="0" y="8.4">t</tspan><tspan x="2.27" y="8.4">empl</tspan><tspan class="cls-117" x="17.25" y="8.4">a</tspan><tspan class="cls-41" x="20.6" y="8.4">t</tspan><tspan class="cls-42" x="22.88" y="8.4">es which can </tspan><tspan x="0" y="16.8">be </tspan><tspan class="cls-39" x="8.97" y="16.8">r</tspan><tspan x="11.19" y="16.8">ende</tspan><tspan class="cls-39" x="26.04" y="16.8">r</tspan><tspan x="28.26" y="16.8">ed in </tspan><tspan x="0" y="25.2">viewpo</tspan><tspan class="cls-114" x="21.49" y="25.2">r</tspan><tspan class="cls-42" x="23.95" y="25.2" xml:space="preserve">t    </tspan><tspan x="0" y="33.6" xml:space="preserve">     </tspan><tspan class="cls-118" x="7.42" y="33.6">M</tspan><tspan class="cls-42" x="13.09" y="33.6">odel can get </tspan><tspan x="0" y="42">bound </tspan><tspan class="cls-107" x="21" y="42">t</tspan><tspan x="23.27" y="42">o</tspan><tspan class="cls-104" x="27.12" y="42"> </tspan><tspan class="cls-113" x="28.35" y="42">V</tspan><tspan x="32.14" y="42">ie</tspan><tspan class="cls-41" x="37.29" y="42">w</tspan><tspan x="42.4" y="42">s using</tspan><tspan x="0" y="50.4">multiple </tspan><tspan class="cls-117" x="25.93" y="50.4">w</tspan><tspan class="cls-109" x="31.05" y="50.4">a</tspan><tspan class="cls-41" x="34.37" y="50.4">y</tspan><tspan class="cls-43" x="37.62" y="50.4">s</tspan><tspan class="cls-42" x="40.32" y="50.4">.</tspan><tspan x="0" y="58.8" xml:space="preserve">    </tspan></text><rect class="cls-34" x="198.29" y="181.21" width="56.05" height="18.52" rx="9.26" ry="9.26"/><text class="cls-32" transform="translate(211.08 191.63)"><tspan class="cls-33">W</tspan><tspan x="7.73" y="0">idget</tspan></text><text class="cls-36" transform="translate(302.88 73.38) scale(0.99 1)"><tspan class="cls-119">C</tspan><tspan class="cls-69" x="4.04" y="0">r</tspan><tspan x="6.26" y="0">e</tspan><tspan class="cls-85" x="9.76" y="0">a</tspan><tspan class="cls-76" x="13.11" y="0">t</tspan><tspan x="15.39" y="0">e and bind handlers </tspan><tspan class="cls-70" x="74.8" y="0">t</tspan><tspan class="cls-71" x="77.08" y="0">o the e</tspan><tspan class="cls-69" x="97.1" y="0">v</tspan><tspan class="cls-71" x="100.4" y="0">e</tspan><tspan class="cls-85" x="103.91" y="0">n</tspan><tspan x="107.76" y="0">ts emit</tspan><tspan class="cls-76" x="127.64" y="0">t</tspan><tspan class="cls-71" x="129.91" y="0">ed </tspan><tspan class="cls-120" x="138.85" y="0">b</tspan><tspan class="cls-71" x="142.78" y="0">y the</tspan><tspan class="cls-72" x="157.27" y="0"> </tspan><tspan class="cls-88" x="158.5" y="0">W</tspan><tspan x="164.32" y="0">idget</tspan><tspan class="cls-79" x="179.64" y="0">s</tspan><tspan x="182.33" y="0">, </tspan><tspan class="cls-79" x="0" y="8.4">C</tspan><tspan x="3.98" y="8.4">o</tspan><tspan class="cls-83" x="7.83" y="8.4">n</tspan><tspan x="11.68" y="8.4">tainer</tspan><tspan class="cls-121" x="28.69" y="8.4">s</tspan><tspan class="cls-74" x="31.39" y="8.4">,</tspan><tspan class="cls-77" x="32.84" y="8.4"> </tspan><tspan class="cls-67" x="34.07" y="8.4">V</tspan><tspan x="37.86" y="8.4">ie</tspan><tspan class="cls-76" x="43.01" y="8.4">w</tspan><tspan x="48.12" y="8.4">s and other IUI Classes</tspan><tspan class="cls-122" x="0" y="16.8">E</tspan><tspan class="cls-123" x="3.39" y="16.8">v</tspan><tspan x="6.69" y="16.8">e</tspan><tspan class="cls-85" x="10.2" y="16.8">n</tspan><tspan x="14.06" y="16.8">tG</tspan><tspan class="cls-69" x="20.89" y="16.8">r</tspan><tspan x="23.11" y="16.8">oups can be c</tspan><tspan class="cls-69" x="63.04" y="16.8">r</tspan><tspan x="65.26" y="16.8">e</tspan><tspan class="cls-85" x="68.77" y="16.8">a</tspan><tspan class="cls-76" x="72.11" y="16.8">t</tspan><tspan x="74.39" y="16.8">ed be</tspan><tspan class="cls-124" x="90.82" y="16.8">f</tspan><tspan x="92.77" y="16.8">o</tspan><tspan class="cls-123" x="96.61" y="16.8">r</tspan><tspan x="98.83" y="16.8">e or a</tspan><tspan class="cls-125" x="114.81" y="16.8">f</tspan><tspan class="cls-76" x="116.93" y="16.8">t</tspan><tspan x="119.21" y="16.8">er IUI </tspan><tspan class="cls-69" x="135.85" y="16.8">r</tspan><tspan x="138.07" y="16.8">ende</tspan><tspan class="cls-90" x="152.91" y="16.8">r</tspan><tspan x="155.23" y="16.8">ing </tspan><tspan x="0" y="25.2">[ IUI.makeUI() call ], and will get bound </tspan><tspan class="cls-70" x="113.17" y="25.2">t</tspan><tspan x="115.44" y="25.2">o </tspan><tspan class="cls-69" x="120.77" y="25.2">r</tspan><tspan class="cls-71" x="122.99" y="25.2">espe</tspan><tspan class="cls-126" x="136.76" y="25.2">c</tspan><tspan x="139.98" y="25.2">ti</tspan><tspan class="cls-69" x="143.94" y="25.2">v</tspan><tspan x="147.24" y="25.2">e </tspan><tspan class="cls-76" x="152.23" y="25.2">c</tspan><tspan x="155.32" y="25.2">ompone</tspan><tspan class="cls-83" x="180.22" y="25.2">n</tspan><tspan x="184.08" y="25.2">t</tspan><tspan x="0" y="33.6">au</tspan><tspan class="cls-76" x="7.23" y="33.6">t</tspan><tspan x="9.51" y="33.6">om</tspan><tspan class="cls-85" x="19.19" y="33.6">a</tspan><tspan x="22.53" y="33.6">ticall</tspan><tspan class="cls-92" x="36.3" y="33.6">y</tspan><tspan x="39.33" y="33.6">.</tspan></text><circle class="cls-80" cx="298.92" cy="71.71" r="1.23"/><circle class="cls-80" cx="298.92" cy="87.71" r="1.23"/><rect class="cls-127" x="290.56" y="119.36" width="203.1" height="52.63" rx="7.12" ry="7.12"/><text class="cls-32" transform="translate(295.1 129.52)">D<tspan class="cls-103" x="6.25" y="0">a</tspan><tspan x="10.91" y="0">ta</tspan><tspan class="cls-128" x="18.94" y="0">M</tspan><tspan x="26.56" y="0">a</tspan><tspan class="cls-97" x="31.3" y="0">r</tspan><tspan class="cls-102" x="34.9" y="0">t</tspan></text><text class="cls-36" transform="translate(302.88 140.55) scale(0.99 1)">D<tspan class="cls-129" x="4.66" y="0">a</tspan><tspan x="8.01" y="0">ta</tspan><tspan class="cls-87" x="13.7" y="0">M</tspan><tspan class="cls-74" x="19.37" y="0">a</tspan><tspan class="cls-78" x="22.74" y="0">r</tspan><tspan x="25.2" y="0">ts a</tspan><tspan class="cls-123" x="35.15" y="0">r</tspan><tspan x="37.37" y="0">e used </tspan><tspan class="cls-70" x="57.92" y="0">t</tspan><tspan class="cls-71" x="60.2" y="0">o bind d</tspan><tspan class="cls-85" x="84.41" y="0">a</tspan><tspan x="87.76" y="0">ta </tspan><tspan class="cls-76" x="94.93" y="0">t</tspan><tspan x="97.21" y="0">o </tspan><tspan class="cls-85" x="102.53" y="0">v</tspan><tspan x="105.87" y="0">a</tspan><tspan class="cls-90" x="109.25" y="0">r</tspan><tspan x="111.56" y="0">ious</tspan><tspan class="cls-72" x="123.67" y="0"> </tspan><tspan class="cls-67" x="124.91" y="0">W</tspan><tspan class="cls-71" x="130.72" y="0">idget</tspan><tspan class="cls-79" x="146.04" y="0">s</tspan><tspan x="148.73" y="0">.</tspan><tspan x="0" y="8.4">D</tspan><tspan class="cls-129" x="4.66" y="8.4">a</tspan><tspan x="8.01" y="8.4">ta</tspan><tspan class="cls-87" x="13.7" y="8.4">M</tspan><tspan class="cls-74" x="19.37" y="8.4">a</tspan><tspan class="cls-78" x="22.74" y="8.4">r</tspan><tspan x="25.2" y="8.4">t can be c</tspan><tspan class="cls-69" x="52.99" y="8.4">r</tspan><tspan x="55.21" y="8.4">e</tspan><tspan class="cls-85" x="58.71" y="8.4">a</tspan><tspan class="cls-76" x="62.06" y="8.4">t</tspan><tspan x="64.34" y="8.4">ed be</tspan><tspan class="cls-124" x="80.76" y="8.4">f</tspan><tspan x="82.72" y="8.4">o</tspan><tspan class="cls-123" x="86.56" y="8.4">r</tspan><tspan x="88.78" y="8.4">e or a</tspan><tspan class="cls-125" x="104.76" y="8.4">f</tspan><tspan class="cls-76" x="106.88" y="8.4">t</tspan><tspan x="109.16" y="8.4">er IUI </tspan><tspan class="cls-69" x="125.79" y="8.4">r</tspan><tspan x="128.01" y="8.4">ende</tspan><tspan class="cls-90" x="142.86" y="8.4">r</tspan><tspan x="145.18" y="8.4">ing </tspan><tspan x="0" y="16.8">[ IUI.makeUI() call ], and will get bound </tspan><tspan class="cls-70" x="113.17" y="16.8">t</tspan><tspan x="115.44" y="16.8">o </tspan><tspan class="cls-69" x="120.77" y="16.8">r</tspan><tspan class="cls-71" x="122.99" y="16.8">espe</tspan><tspan class="cls-126" x="136.76" y="16.8">c</tspan><tspan x="139.98" y="16.8">ti</tspan><tspan class="cls-69" x="143.94" y="16.8">v</tspan><tspan x="147.24" y="16.8">e </tspan><tspan class="cls-76" x="152.23" y="16.8">c</tspan><tspan x="155.32" y="16.8">ompone</tspan><tspan class="cls-83" x="180.22" y="16.8">n</tspan><tspan x="184.08" y="16.8">t</tspan><tspan x="0" y="25.2">au</tspan><tspan class="cls-76" x="7.23" y="25.2">t</tspan><tspan x="9.51" y="25.2">om</tspan><tspan class="cls-85" x="19.19" y="25.2">a</tspan><tspan x="22.53" y="25.2">ticall</tspan><tspan class="cls-92" x="36.3" y="25.2">y</tspan><tspan x="39.33" y="25.2">.</tspan></text><circle class="cls-80" cx="298.92" cy="138.88" r="1.23"/><circle class="cls-80" cx="298.92" cy="146.88" r="1.23"/><rect class="cls-24" x="290.56" y="177.03" width="203.1" height="52.63" rx="7.12" ry="7.12"/><text class="cls-93" transform="translate(295.1 187.2)"><tspan class="cls-33">V</tspan><tspan class="cls-94" x="5.46" y="0">i</tspan><tspan class="cls-95" x="7.92" y="0">e</tspan><tspan x="12.61" y="0">w</tspan><tspan class="cls-96" x="19.42" y="0">Mo</tspan><tspan class="cls-94" x="32.24" y="0">del</tspan></text><text class="cls-66" transform="translate(302.88 198.22) scale(0.99 1)"><tspan class="cls-67">V</tspan><tspan x="3.79" y="0">iew</tspan><tspan class="cls-87" x="14.09" y="0">M</tspan><tspan x="19.76" y="0">odel is the model use </tspan><tspan class="cls-70" x="83.17" y="0">t</tspan><tspan x="85.45" y="0">o </tspan><tspan class="cls-123" x="90.77" y="0">r</tspan><tspan x="92.99" y="0">ender the</tspan><tspan class="cls-77" x="121.32" y="0"> </tspan><tspan class="cls-67" x="122.55" y="0">V</tspan><tspan x="126.35" y="0">iew in the viewpo</tspan><tspan class="cls-78" x="177.82" y="0">r</tspan><tspan x="180.27" y="0">t</tspan><tspan class="cls-67" x="0" y="8.4">V</tspan><tspan x="3.79" y="8.4">iew</tspan><tspan class="cls-87" x="14.09" y="8.4">M</tspan><tspan x="19.76" y="8.4">odel can be c</tspan><tspan class="cls-123" x="58.18" y="8.4">r</tspan><tspan x="60.4" y="8.4">e</tspan><tspan class="cls-85" x="63.91" y="8.4">a</tspan><tspan class="cls-76" x="67.26" y="8.4">t</tspan><tspan x="69.53" y="8.4">ed be</tspan><tspan class="cls-130" x="85.96" y="8.4">f</tspan><tspan x="87.91" y="8.4">o</tspan><tspan class="cls-69" x="91.75" y="8.4">r</tspan><tspan x="93.97" y="8.4">e or a</tspan><tspan class="cls-125" x="109.95" y="8.4">f</tspan><tspan class="cls-76" x="112.08" y="8.4">t</tspan><tspan x="114.35" y="8.4">er IUI </tspan><tspan class="cls-123" x="130.99" y="8.4">r</tspan><tspan x="133.21" y="8.4">ende</tspan><tspan class="cls-90" x="148.05" y="8.4">r</tspan><tspan x="150.37" y="8.4">ing </tspan><tspan x="0" y="16.8">[ IUI.makeUI() call ], and will get bound </tspan><tspan class="cls-70" x="113.17" y="16.8">t</tspan><tspan x="115.44" y="16.8">o </tspan><tspan class="cls-69" x="120.77" y="16.8">r</tspan><tspan class="cls-71" x="122.99" y="16.8">espe</tspan><tspan class="cls-126" x="136.76" y="16.8">c</tspan><tspan x="139.98" y="16.8">ti</tspan><tspan class="cls-69" x="143.94" y="16.8">v</tspan><tspan x="147.24" y="16.8">e view</tspan><tspan x="0" y="25.2">au</tspan><tspan class="cls-76" x="7.23" y="25.2">t</tspan><tspan x="9.51" y="25.2">om</tspan><tspan class="cls-85" x="19.19" y="25.2">a</tspan><tspan x="22.53" y="25.2">ticall</tspan><tspan class="cls-92" x="36.3" y="25.2">y</tspan><tspan x="39.33" y="25.2">.</tspan></text><circle class="cls-81" cx="298.92" cy="196.55" r="1.23"/><circle class="cls-81" cx="298.92" cy="204.55" r="1.23"/><rect class="cls-24" x="290.44" y="234.24" width="203.1" height="47.01" rx="7.12" ry="7.12"/><text class="cls-93" transform="translate(294.98 244.41)"><tspan class="cls-131">C</tspan><tspan x="5.16" y="0">us</tspan><tspan class="cls-132" x="14.29" y="0">t</tspan><tspan x="17.53" y="0">om</tspan><tspan class="cls-133" x="30.43" y="0"> </tspan><tspan class="cls-33" x="31.91" y="0">W</tspan><tspan x="39.64" y="0">idgets</tspan></text><text class="cls-66" transform="translate(302.76 255.43) scale(0.99 1)">IUI.js can be <tspan class="cls-119" x="36.13" y="0">e</tspan><tspan class="cls-126" x="39.62" y="0">x</tspan><tspan class="cls-76" x="42.95" y="0">t</tspan><tspan x="45.23" y="0">ended </tspan><tspan class="cls-70" x="65.5" y="0">t</tspan><tspan class="cls-71" x="67.78" y="0">o c</tspan><tspan class="cls-69" x="76.24" y="0">r</tspan><tspan class="cls-71" x="78.46" y="0">e</tspan><tspan class="cls-129" x="81.97" y="0">a</tspan><tspan class="cls-76" x="85.31" y="0">t</tspan><tspan x="87.59" y="0">e </tspan><tspan class="cls-123" x="92.58" y="0">y</tspan><tspan x="95.81" y="0">our </tspan><tspan class="cls-122" x="107.28" y="0">o</tspan><tspan x="111.07" y="0">wn cus</tspan><tspan class="cls-76" x="131.36" y="0">t</tspan><tspan x="133.63" y="0">o</tspan><tspan class="cls-134" x="137.48" y="0">m</tspan><tspan class="cls-135" x="142.97" y="0">T</tspan><tspan class="cls-74" x="146" y="0">ag widgets and </tspan><tspan class="cls-76" x="0" y="8.4">c</tspan><tspan x="3.09" y="8.4">o</tspan><tspan class="cls-85" x="6.94" y="8.4">n</tspan><tspan x="10.79" y="8.4">tainer</tspan><tspan class="cls-79" x="27.8" y="8.4">s</tspan><tspan x="30.5" y="8.4">.</tspan><tspan class="cls-136" x="0" y="16.8">Y</tspan><tspan x="3.25" y="16.8">ou can also cus</tspan><tspan class="cls-76" x="47.21" y="16.8">t</tspan><tspan x="49.48" y="16.8">omi</tspan><tspan class="cls-122" x="60.8" y="16.8">z</tspan><tspan x="63.75" y="16.8">e the beh</tspan><tspan class="cls-84" x="91.31" y="16.8">a</tspan><tspan x="94.62" y="16.8">vior of </tspan><tspan class="cls-119" x="114.62" y="16.8">e</tspan><tspan x="118.1" y="16.8" xml:space="preserve">xisting  widgets easil</tspan><tspan class="cls-92" x="178.15" y="16.8">y</tspan><tspan class="cls-74" x="181.17" y="16.8">.</tspan></text><circle class="cls-81" cx="298.8" cy="253.76" r="1.23"/><circle class="cls-81" cx="298.8" cy="270.76" r="1.23"/><rect class="cls-49" x="199.29" y="228.52" width="54.04" height="19.14" rx="8.04" ry="8.04"/><text class="cls-50" transform="translate(204.3 236.36)"><tspan class="cls-54">T</tspan><tspan class="cls-55" x="3.05" y="0">w</tspan><tspan class="cls-56" x="7.89" y="0">o</tspan><tspan class="cls-57" x="11.65" y="0">-</tspan><tspan class="cls-53" x="13.67" y="0">w</tspan><tspan class="cls-58" x="18.55" y="0">a</tspan><tspan x="21.71" y="0">y </tspan><tspan class="cls-59" x="26.27" y="0">M</tspan><tspan x="31.67" y="0">odel</tspan><tspan x="11.1" y="8">binding</tspan></text><rect class="cls-49" x="200.18" y="250.43" width="54.04" height="10.6" rx="5.3" ry="5.3"/><text class="cls-50" transform="translate(207.88 257.73)"><tspan class="cls-51">E</tspan><tspan class="cls-52" x="3.24" y="0">v</tspan><tspan x="6.38" y="0">e</tspan><tspan class="cls-53" x="9.72" y="0">n</tspan><tspan x="13.39" y="0">t Binding</tspan></text><circle class="cls-81" cx="200.91" cy="266.3" r="1.23"/><circle class="cls-81" cx="200.91" cy="300.3" r="1.23"/><circle class="cls-80" cx="296.33" cy="307.15" r="1.23"/><circle class="cls-80" cx="296.33" cy="315.15" r="1.23"/><path class="cls-137" d="M170.12,423.56v-8.19h6.51l-11.85-11.85-11.85,11.85h6.39V423c0,.18,0,.35,0,.52h0v1.54a6.64,6.64,0,0,0,6.64,6.65h16.66v-8.19Z" transform="translate(-47.67 -72.75)"/><path class="cls-137" d="M447.68,403.08l-11.85,11.85h6.5v8.19h-12.5v8.19h16.66a6.65,6.65,0,0,0,6.65-6.65v-1.54h0c0-.17,0-.34,0-.52v-7.67h6.38Z" transform="translate(-47.67 -72.75)"/><rect class="cls-24" x="134.95" y="345.62" width="247.21" height="18.3" rx="6.5" ry="6.5"/><text class="cls-138" transform="translate(176.83 358.56)">IUI.ma<tspan class="cls-139" x="31.43" y="0">k</tspan><tspan x="36.72" y="0">eUI( </tspan><tspan class="cls-140" x="57.92" y="0">[</tspan><tspan x="61.2" y="0" xml:space="preserve">element]  [,m</tspan><tspan class="cls-141" x="123.32" y="0">o</tspan><tspan class="cls-142" x="129.6" y="0">del] )</tspan></text></svg>